<svg xmlns="http://www.w3.org/2000/svg" xml:space="preserve" viewBox="-121 -121 2162 2162"><path fill="#000005" d="m1352 4 1-4h2l1 4v58c0 2-4 2-4 0V4zM1187 93V3h3v90h-3z"/><path fill="#000004" d="m1608 17-1-13h4v60c-1-1-4 0-3-2V17z"/><path fill="#000005" d="m1503 63-1-59h4v57c0 2-1 3-3 2zM1473 61V3l3 1v59c-2 1-4 0-3-2zM1848 33V3l3 1h1v55l-1 4-3 1V33z"/><path fill="#000004" d="M1596 4v59h-3V3l3 1z"/><path fill="#000005" d="M1427 62V3l4 1v58c0 2-4 2-4 0z"/><path fill="#92D7FF" d="M1836 45V3h12v30l-12 12z"/><path fill="#000005" d="m1277 4-11-1h11l1-3h2l1 3h8v1l-8-1v59c0 2-4 2-4 0V4z"/><path fill="#000004" d="m1086 4-1 60-3-1V4h4z"/><path fill="#92D7FF" d="M1459 135c0-4 2-8 4-12 2-3 8-3 11-1 1 1 2 2 3 1l1-2h7v21h-6c0-2-1-3-3-2l-9 3c-4 0-8-4-8-8z"/><path fill="#000005" d="M1255 169c0 4 5 6 8 6s7-2 8-5 0-8-3-9h-9c-3 2-4 5-4 8zm0 28c3 4 9 4 13 3 6-2 7-8 5-13-2-3-6-5-10-6l-6 3c-4 3-5 9-2 13zm-7 2c-2-7 0-16 6-20l-5-7c-2-7 4-16 11-17 5-1 10-1 14 3 4 3 4 9 3 14 0 3-3 4-6 6 4 2 7 4 8 8 2 5 2 12-2 16-5 4-12 5-18 4-4-1-9-3-11-7z"/><path fill="#000004" d="M995 4v59c-2 1-4 0-3-2V4h3z"/><path fill="#004" d="m1237 3-3-3h13v3h-10z"/><path fill="#000005" d="M1322 62V4l1-4h2l1 4v58c0 2-4 2-4 0z"/><path fill="#92D7FF" d="M1791 93V3h12v61c1-1 4 0 4-2V3h11v61l-23 23c-2 1-4 3-3 5l-1 1z"/><path fill="#000005" d="M1098 161c-4 0-3-6 0-6h29c2 1 5 0 6 2 0 3-3 6-5 8-6 7-9 16-13 24l-7 17c-2 3-7 0-6-3l6-15c4-10 8-19 14-26l-24-1zM1206 3v59c0 2-4 2-4 0V3h4zM1788 89V3h3v90l-3 1v-5z"/><path fill="#92D7FF" d="M1459 146c-5-4-7-11-5-17 2-5 5-11 10-13s10 0 14 2v3l-1 2c-1 1-2 0-3-1-3-2-9-2-11 1-2 4-4 8-4 12s4 8 8 8l9-3c2-1 3 0 3 2l-1 2c-5 4-13 6-19 2z"/><path fill="#000005" d="M1232 62V4l1-4h1l3 3h10-11v59c0 2-4 2-4 0zM1412 119V4l1-4h2l1 4v119h-3l-1-4z"/><path fill="#000004" d="M1833 49V3h3v42l1 5-1 13h-3a281 281 0 0 1 0-14z"/><path fill="#000005" d="M1397 62V4l1-4h2l1 4v58c0 2-4 2-4 0z"/><path fill="#000004" d="m1533 4 3-1v60h-3V4z"/><path fill="#000005" d="M1220 63h-3V3h4v55l-1 5zM1533 174c-3 0-5-3-4-5 1-3 5-5 7-7 3-2 6-5 10-5 2 2 0 6 0 9 2 15-3 29 0 44 2 0 5-1 7 2 1 2-1 5-3 5h-19c-3 0-4-5-1-6l8-1c-2-13 1-27 1-40l-6 4z"/><path fill="#92D7FF" d="M1259 161h9c3 1 4 6 3 9s-5 5-8 5-8-2-8-6c0-3 1-6 4-8z"/><path fill="#000004" d="M1668 63V3l3 1v59h-3z"/><path fill="#000005" d="M1262 124V4l1-4h2l1 3v118c0 3-2 3-4 3z"/><path fill="#000004" d="M1067 4h4l-1 12v47h-3V4z"/><path fill="#000005" d="M1818 64V3h4v57l-1 3-3 1z"/><path fill="#000004" d="m1728 3 3 1v60l-3-1V3z"/><path fill="#000005" d="M1743 53V4h3v59h-2c-2-2-1-7-1-10z"/><path fill="#000004" d="M1656 63c-1 1-4 1-3-2V4h3v59z"/><path fill="#004" d="m1281 3-1-3h13l-1 3a64 64 0 0 1-11 0z"/><path fill="#92D7FF" d="M1576 158c-10 4-15 15-16 25 0 10 1 20 6 29 7 10 24 9 31-1 5-7 6-16 6-25 1-8-1-17-7-23-5-5-13-7-20-5zm-47 11c-1 2 1 5 4 5l6-4c0 13-3 27-1 40l-8 1c-3 1-2 6 1 6h19c2 0 4-3 3-5-2-3-5-2-7-2-3-15 2-29 0-44 0-3 2-7 0-9-4 0-7 3-10 5-2 2-6 4-7 7zm-131 7c1 6 6 10 12 11 4 1 9-1 13-2-2 4-4 8-8 11l-14 7c-2 1 0 6 3 5l12-5c8-4 12-13 14-21 2-6 3-12 0-18-2-5-7-9-12-10-6 0-12 1-16 5-5 4-6 11-4 17zM372 1042c-3 1-6 0-7-3h11l3 2 74-75 496-496 92-91 3-3 2-6c0-5-4-10-9-10H370c-5 0-8 4-9 8v670l4 7c3 2 7 1 10 0l-3-3zm726-881 24 1c-6 7-10 16-14 26l-6 15c-1 3 4 6 6 3l7-17c4-8 7-17 13-24 2-2 5-5 5-8-1-2-4-1-6-1l-29-1c-3 0-4 6 0 6zm151 11 5 7c-6 4-8 13-6 20 2 4 7 6 11 7 6 1 13 0 18-4 4-4 4-11 2-16-1-4-4-6-8-8 3-2 6-3 6-6 1-5 1-11-3-14-4-4-9-4-14-3-7 1-13 10-11 17zm229-54c-4-2-9-4-14-2s-8 8-10 13c-2 6 0 13 5 17 6 4 14 2 19-2l1-2h6c0 2 0 4 2 5 2 2 5 0 4-3-1-5 0-10 1-14 2-4 5-7 8-9 2 4 1 8 2 12l1 15c1 3 6 2 6-1l-2-21c2-2 6-5 9-4 4 8 2 17 4 25 1 3 6 2 6-1l-4-26c-2-6-11-5-15-1-2-2-3-4-6-4-5 0-7 5-10 8v-6c0-2-3-5-5-3l-1 7h-7v-3zm238 5V4h1l11-1v60l3 1V4h12v49c0 3-1 8 1 10h2V4h1l11-1v60l3 1V4h1l11-1v58c-1 3 3 4 3 1V3h12v91l-15 15-644 643-321 321-795 796-9 8V533l1-107-1-245V21c0-4 0-8 2-11 3-5 9-7 14-7l40 1 1-4h2l1 4h11V3a423 423 0 0 0 15 1l1-4h2l1 3h11l1-3h2l1 4h11l1-4h2l1 4 11-1 1-3h2l1 4h11V3h4a323 323 0 0 0 15 0h42l3 1a4332 4332 0 0 0 30 0h12l3-1 11 1 4-1 11 1h16l3-1 11 1h19a540 540 0 0 1 27 0h3a479 479 0 0 1 27 0h34l11-1a411 411 0 0 1 15 1h15V3h33a302 302 0 0 0 16 0h11l3 1 1-1h3l8 1 3-1h15a910 910 0 0 0 16 0h30v1h11V3h15l1-3h2l1 4h11V3h4v1h11l1-4h2l1 3 11 1 1-4h2l1 4h11l1-4h2l1 3h11l1-3h2l1 4h11l1-4h2l1 4 11-1 4 1h11V3l4 1h11l1-4h2l1 4h11V3l4 1h12V0h2l1 3h11l1-3h2l1 3h11l1-3h2l1 3h11l1-3h3v4h12l3-1h27l3 1h30a616 616 0 0 1 27 0h15l3-1 11 1h16v57c-1 2 1 3 3 2V4h12v59h3V4h12v57c-1 3 4 3 3 0V4h12v87c0 2 1 3 3 3V4h12v56c0 1 0 4 2 4s1-3 1-4V4h1l11-1v60h3V16l1-12h11v59l3 1 1-60h11v60c2-1 4 0 3-3V4h12v119h3V21l1-17 11-1v60h3V4h1l11-1v52c0 3-2 9 3 9V3h12v60l3 1V3h12v59c0 2 4 2 3 0V3h12v90h3V3h12v59c0 2 4 2 4 0V3h11v60h3l1-5V4h11v58c0 2 4 2 4 0V3h11v59c0 2 4 2 3 0l1-58h11v120c2 0 4 0 4-3V3l11 1v58c0 2 4 2 4 0V3a168 168 0 0 0 11 0v60c1 0 4 1 4-1V3h11v59c0 2 4 2 4 0V4h11v58c0 2 4 2 4 0V3h11v83l1 7h3V4h11v58c0 2 4 2 4 0V4l11-1v59c0 2 4 2 4 0V4h11v50l1 9c0 1 3 1 3-1V4h11v58c0 2 4 2 4 0V4h11v115l1 4h3V4h11v58c0 2 4 2 4 0V4h11l1 58c-1 2 2 1 3 2V4h11l1 58c-1 2 3 2 3 0V3h12l-1 58c0 2 2 3 4 2V4h11l1 88c0 3 4 2 3-1V4h11l1 59c2 1 3 0 3-2V4h12v60l3-1V4h12v59h3V3h12v61l3-1V3h12v120h3V4h12v59l3 1V4l12-1v60h3V4h11l1 13v45c-1 2 2 1 3 2V4h12v57c-1 2 2 3 3 2V4h12v89h3V4h12v57c-1 3 2 3 3 2V4h1l11-1v60h3V4h12v59c2 1 4 0 3-2V4h12v59h3V4h12v120l3-1z"/><path fill="#000004" d="M1054 64c-2 0-2-3-2-4V4h3v56c0 1 1 4-1 4z"/><path fill="#92D7FF" d="M1822 4h11v45l-11 11V4z"/><path fill="#000005" d="m1458 62-1-58V3h4v59c0 2-4 2-3 0z"/><path fill="#000004" d="M1112 123V4h4l-1 17v102h-3z"/><path fill="#92D7FF" d="M1568 185c0-7 3-16 10-19 5-2 11-1 14 3 4 6 4 13 4 19-1 7-2 14-6 19-4 6-13 6-17 0-5-6-5-14-5-22z"/><path fill="#000005" d="M1548 3h3v60l-3 1V3zM1172 62V3h3v59c1 2-3 2-3 0zM1337 86V3l1-3h2l1 4v89h-3l-1-7z"/><path fill="#000004" d="M1563 123V3h3v120h-3z"/><path fill="#000005" d="M1145 64c-5 0-3-6-3-9V3h3v61zM1160 64l-3-1V3h3v61z"/><path fill="#000004" d="M1683 63V4h3v57c1 2-1 3-3 2zM1037 91V4h3v90c-2 0-3-1-3-3zM1623 61V4h3v59c-1 1-4 0-3-2z"/><path fill="#000005" d="m1758 3 3 1v60l-3-1V3z"/><path fill="#92D7FF" d="M1407 162c3-2 7-3 11-2 5 3 9 10 7 16-4 3-7 5-11 5s-9-2-10-7c-1-4 0-10 3-12z"/><path fill="#004" d="M1716 4a432 432 0 0 0-15 0h-30l-3-1-11 1h-4a478 478 0 0 0-27 0h-30l-3-1-12 1a447 447 0 0 0-15 0V3h-30l-3 1h-57l-3-1h-16v1h-11l-4-1v1a314 314 0 0 0-15-1v1h-11l-1-4h495c6 2 8 11 4 15l-47 47-2 2-11 12L16 1913l-3 3H7c-4-1-5-4-7-7V646l1-2V307H0V13C3 6 9 1 15 0h46l-1 4-40-1C15 3 9 5 6 10c-2 3-2 7-2 11v160l1 245-1 107v1344l9-8 795-796 321-321 644-643 15-15 3-1 1-1c-1-2 1-4 3-5l23-23 3-1 1-3 11-11v5L999 888l-321 320-638 638-36 36v22c0 2-1 5 1 7s4 1 7 2l2-3L1715 209l147-147 1-1 4-3v-1l43-43c2-2 3-5 2-8-1-2-4-2-6-2h-24l-15 16v-5l10-11h-10l-4-1v1h-12l-3-1h-15v1h-11V3h-4a204 204 0 0 1-27 0h-18l-11 1h-1l-3-1-11 1h-16l-3-1-11 1h-1z"/><path fill="#A8DFFF" d="m1862 62-147 147L14 1910l-2 3c-3-1-5 0-7-2s-1-5-1-7v-22l36-36 638-638 321-320 834-834v9h3l1-13 11-11v25l3-1 1-4V35l11-11v-5l-11 11V4h11V3l4 1h10l-10 11v5l15-16h24c2 0 5 0 6 2 1 3 0 6-2 8l-43 43v1l-4 3-1 1z"/><path fill="#000004" d="M1025 61c1 3-4 3-3 0V4h3v57z"/><path fill="#92d7ff" d="M1485 136v-15l1-7c2-2 5 1 5 3v6c3-3 5-8 10-8 3 0 4 2 6 4 4-4 13-5 15 1l4 26c0 3-5 4-6 1-2-8 0-17-4-25-3-1-7 2-9 4l2 21c0 3-5 4-6 1l-1-15c-1-4 0-8-2-12-3 2-6 5-8 9-1 4-2 9-1 14 1 3-2 5-4 3-2-1-2-3-2-5v-6z"/><path fill="#000004" d="M1716 4v119l-3 1V4h3z"/><path fill="#000005" d="M1803 64V3h4v59c0 2-3 1-4 2z"/><path fill="#000004" d="M1698 63V4h3v59h-3z"/><path fill="#000005" d="M1371 62c0 2-4 2-4 0a4753 4753 0 0 1 1-62h2l1 4v58z"/><path fill="#000004" d="M1097 64V3l3 1v57c1 3-1 2-3 3z"/><path fill="#92D7FF" d="M1269 200c-5 1-11 1-14-3s-2-10 2-13l6-3c4 1 8 3 9 6 3 5 2 11-3 13z"/><path fill="#000005" d="M1247 3V0h3l1 4-1 58c1 2-3 2-3 0V3z"/><path fill="#000004" d="M1007 63V4h3v59h-3z"/><path fill="#000005" d="M1382 54V3l4 1v58c0 2-3 2-3 1l-1-9z"/><path fill="#000004" d="M1638 93V4h3v89h-3z"/><path fill="#000005" d="M1311 62c0 2-4 2-4 0V3l1-3h2l1 4v58zM1518 4h3v59l-3 1V4zM1773 61V3h3v59c0 3-4 2-3-1zM1418 160c-4-1-8 0-11 1-3 3-4 9-3 13 1 5 6 7 10 7s7-2 11-5c2-6-2-13-7-16zm12 22c-2 8-6 17-14 21l-12 5c-3 1-5-4-3-5l14-7c4-3 6-7 8-11-4 1-9 3-13 2-6-1-11-5-12-11-2-6-1-13 4-17 4-4 10-5 16-5 5 1 10 5 12 10 3 6 2 12 0 18zM1578 166c-7 3-10 12-10 19 0 8 0 16 5 22 4 6 13 6 17 0 4-5 5-12 6-19 0-6 0-13-4-19-3-4-9-5-14-3zm18-3c6 6 8 15 7 23 0 9-1 18-6 25-7 10-24 11-31 1-5-9-6-19-6-29 1-10 6-21 16-25 7-2 15 0 20 5z"/><path fill="#004" d="M1863 19v5l-11 11v-5l11-11z"/><path fill="#000005" d="M1488 4h3v87c1 3-3 4-3 1l-1-88h1zM1292 63V3h-3 3l1-3h2l1 3v59c0 2-3 1-4 1zM1446 4v60c-1-1-4 0-3-2l-1-58V3l4 1z"/><path fill="#004" d="m1836 45 12-12v6l-11 11-1-5z"/><path fill="#000004" d="M1127 63V3l3 1v59h-3zM1581 64l-3-1V4h3v60z"/><path fill="#004" d="M1412 4h-11l-1-4h13l-1 4zM1386 4l-4-1v1h-11l-1-4h28l-1 4h-11zM1368 0l-1 3-11 1-1-4h13zM1353 0l-1 4h-11l-1-4h13zM1326 4l-1-4h13l-1 3-11 1zM1323 0l-1 4h-11l-1-4h13zM1308 0l-1 4-11-1-1-3h13zM1278 0l-1 3h-11l-1-3h13zM1251 4l-1-4h13l-1 4h-11zM1040 4a422 422 0 0 0-30 0h-34l-11-1-3 1h-15a616 616 0 0 0-27 0h-30l-3-1h-27l-3 1h-12V0h388l-1 4h-11V3h-61a388 388 0 0 0-15 0h-3l-11 1h-1l-3-1-11 1h-4a303 303 0 0 0-15-1v1h-57zM841 3h-11l-1-3h13l-1 3zM827 0l-1 3h-11l-1-3h13zM812 0l-1 3h-11l-1-3h13zM781 4h-11l-1-4h28v4h-12l-4-1v1zM736 3l-11 1-1-4h43l-1 4h-11l-4-1v1h-11l-4-1zM710 4l-1-4h13l-1 4h-11zM707 0l-1 3-11 1-1-4h13zM680 4l-1-4h13l-1 4h-11zM677 0l-1 4-11-1-1-3h13zM646 3v1h-11l-1-4h28l-1 4h-11V3h-4zM949 470 453 966l-74 75-3-2 300-300 129-129 235-235 1-2c2-3 1-7-3-9H368l-4 4v667h-3a917538 917538 0 0 1 0-667c1-4 4-8 9-8h667c5 0 9 5 9 10l-2 6-3 3-92 91zM365 1045l-4-7a136 136 0 0 1 3 1c2 3 5 4 8 3l3 3c-3 1-7 2-10 0zM526 3h-60v1h-15a724 724 0 0 0-15-1l-11 1h-34a612 612 0 0 0-27 0h-3a479 479 0 0 0-27 0h-19l-11-1-3 1h-16l-11-1-4 1-11-1-3 1h-12a195 195 0 0 0-18 0h-12l-3-1h-42a200 200 0 0 0-19 0v1h-11l-1-4h494l-1 3h-15v1h-11V3h-61a439 439 0 0 1-11 0h-3l-1 1-3-1zM136 0l-1 3-11 1-1-4h13zM109 4l-1-4h13l-1 4h-11zM106 0l-1 4H94l-1-4h13zM79 4l-4-1v1H64l-1-4h28l-1 4H79z"/><g fill="none" stroke-width=".1"><path stroke="#000005" d="M1233 0h1l3 3h10V0h3l1 4-1 58c1 2-3 2-3 0V3h-11v59c0 2-4 2-4 0V4l1-4zM1263 0h2l1 3h11l1-3h2l1 3a75 75 0 0 0 11 0l1-3h2l1 3v59c0 2-3 1-4 1V3a161 161 0 0 1-11 0v59c0 2-4 2-4 0V4l-11-1v118c0 3-2 3-4 3V4l1-4zM1308 0h2l1 4v58c0 2-4 2-4 0V3l1-3zM1323 0h2l1 4v58c0 2-4 2-4 0V4l1-4zM1338 0h2l1 4v89h-3l-1-7V3l1-3zM1353 0h2l1 4v58c0 2-4 2-4 0V4l1-4zM1368 0h2l1 4v58c0 2-4 2-4 0a4753 4753 0 0 1 1-62zM1398 0h2l1 4v58c0 2-4 2-4 0V4l1-4zM1413 0h2l1 4v119h-3l-1-4V4l1-4z"/><path stroke="#000004" d="M1097 4V3l4 1-1 57c1 3-1 2-3 3V4z"/><path stroke="#000005" d="M1157 3h3v61l-3-1V3zM1202 3h4v59c0 2-4 2-4 0V3zM1217 3h4v55l-1 5h-3V3zM1382 4V3l4 1v58c0 2-3 2-3 1l-1-9V4zM1427 4V3l4 1v58c0 2-4 2-4 0V4zM1442 4V3l4 1v60c-1-1-4 0-3-2l-1-58zM1457 4V3h4v59c0 2-4 2-3 0l-1-58z"/><path stroke="#000004" d="M1563 3h3v120h-3V3z"/><path stroke="#000005" d="M1818 3h4v57l-1 3-3 1V3z"/><path stroke="#000004" d="M1833 4V3h3v42l1 5-1 13h-3a281 281 0 0 1 0-14V4zM992 4h3v59c-2 1-4 0-3-2V4zM1007 4h3v59h-3V4zM1022 4h3v57c1 3-4 3-3 0V4zM1037 4h3v90c-2 0-3-1-3-3V4zM1052 4h3v56c0 1 1 4-1 4s-2-3-2-4V4zM1067 4h4l-1 12v47h-3V4zM1082 4h4l-1 60-3-1V4zM1112 4h4l-1 17v102h-3V4zM1127 3l3 1v59h-3V3z"/><path stroke="#000005" d="M1142 3h3v61c-5 0-3-6-3-9V3zM1172 3h3v59c1 2-3 2-3 0V3zM1187 3h3v90h-3V3zM1473 3l3 1v59c-2 1-4 0-4-2l1-58zM1487 4h4v87c1 3-3 4-3 1l-1-88zM1502 4h4v57c0 2-1 3-3 2l-1-59zM1518 4h3v59l-3 1V4z"/><path stroke="#000004" d="m1533 4 3-1v60h-3V4z"/><path stroke="#000005" d="M1548 3h3v60l-3 1V3z"/><path stroke="#000004" d="M1578 4h3v60l-3-1V4zM1593 3l3 1v59h-3V3zM1607 4h4v60c-1-1-4 0-3-2V17l-1-13zM1623 4h3v59c-1 1-4 0-3-2V4zM1638 4h3v89h-3V4zM1653 4h3v59c-1 1-4 1-3-2V4zM1668 3l3 1v59h-3V3zM1683 4h3v57c1 2-1 3-3 2V4zM1698 4h3v59h-3V4zM1713 4h3v119l-3 1V4zM1728 3l3 1v60l-3-1V3z"/><path stroke="#000005" d="M1743 4h3v59h-2c-2-2-1-7-1-10V4zM1758 3l3 1v60l-3-1V3zM1773 3h3v59c0 3-4 2-3-1V3zM1788 3h3v90l-3 1V3zM1803 3h4l-1 59c1 2-2 1-3 2V3zM1848 3l3 1h1v55l-1 4-3 1V3zM1402 159c4-4 10-5 16-5 5 1 10 5 12 10 3 6 2 12 0 18-2 8-6 17-14 21l-12 5c-3 1-5-4-3-5l14-7c4-3 6-7 8-11-4 1-9 3-13 2-6-1-11-5-12-11-2-6-1-13 4-17z"/><path stroke="#000005" d="M1407 162c-3 2-4 8-3 12 1 5 6 7 10 7s7-2 11-5c2-6-2-13-7-16-4-1-8 0-11 2zM1098 161c-4 0-3-6 0-6h29c2 1 5 0 6 2 0 3-3 6-5 8-6 7-9 16-13 24l-7 17c-2 3-7 0-6-3l6-15c4-10 8-19 14-26l-24-1zM1249 172c-2-7 4-16 11-17 5-1 10-1 14 3 4 3 4 9 3 14 0 3-3 4-6 6 4 2 7 4 8 8 2 5 2 12-2 16-5 4-12 5-18 4-4-1-9-3-11-7-2-7 0-16 6-20l-5-7z"/><path stroke="#000005" d="M1259 161c-3 2-4 5-4 8 0 4 5 6 8 6s7-2 8-5 0-8-3-9h-9zM1257 184c-4 3-5 9-2 13s9 4 13 3c6-2 7-8 5-13-2-3-6-5-10-6l-6 3zM1536 162c3-2 6-5 10-5 2 2 0 6 0 9 2 15-3 29 0 44 2 0 5-1 7 2 1 2-1 5-3 5h-19c-3 0-4-5-1-6l8-1c-2-13 1-27 1-40l-6 4c-3 0-5-3-4-5 1-3 5-5 7-7zM1576 158c7-2 15 0 20 5 6 6 8 15 7 23 0 9-1 18-6 25-7 10-24 11-31 1-5-9-6-19-6-29 1-10 6-21 16-25z"/><path stroke="#000005" d="M1578 166c-7 3-10 12-10 19 0 8 0 16 5 22 4 6 13 6 17 0 4-5 5-12 6-19 0-6 0-13-4-19-3-4-9-5-14-3z"/></g><path fill="#000005" stroke="#000005" stroke-width=".1" d="M61 0h2l1 4v119l-3 1-1-20V4l1-4zM91 0h2l1 4v53l-1 6c0 1-3 1-3-1V4l1-4zM106 0h2l1 4v58c0 2-4 2-4 0V4l1-4zM121 0h2l1 4v58c0 2-4 2-4 0V4l1-4zM136 0h2l1 4v89h-3l-1-4V3l1-3zM632 0h2a428 428 0 0 1 1 62c0 2-4 2-4 0V3l1-3zM662 0h2l1 3v121l-3-1-1-4V4l1-4zM677 0h2l1 4v58c0 2-3 1-4 1a9977 9977 0 0 1 1-63zM692 0h2l1 4v58c0 2-3 1-4 1a9191 9191 0 0 1 1-63zM707 0h2l1 4v59h-4V3l1-3zM722 0h2l1 4v58c0 2-3 2-3 1l-1-5V4l1-4zM767 0h2l1 4v58c0 2-4 2-4 0a4541 4541 0 0 1 1-62z"/><path fill="#000038" stroke="#000038" stroke-width=".1" d="M797 0h2l1 3h11l1-3h2l1 3h11l1-3h2l1 3h11l1-3h3v4l-4-1h-41l-3 1V0z"/><path fill="#000005" stroke="#000005" stroke-width=".1" d="m75 3 4 1v58c0 2-4 2-4 0V3zM150 3h4v60h-3l-1-4V3z"/><path fill="#000004" stroke="#000004" stroke-width=".1" d="M196 3h3v60h-3V3zM466 3h3v60h-3V3z"/><path fill="#000005" stroke="#000005" stroke-width=".1" d="M511 3h4v117l-1 3h-3V3zM586 3h4v86l-1 4h-3V3zM601 3h4v59c0 2-4 2-4 0V3zM616 3h4v59c0 2-3 1-4 1V3zM646 3h4v59c0 2-4 2-4 0V3zM736 3l4 1v89h-3l-1-9V3zM751 3l4 1v59h-3l-1-5V3zM781 3l4 1v58c0 2-4 2-3 0l-1-58V3zM811 3h4v121l-3-1-1-10V3zM826 3h4v59c0 2-4 2-4 0V3zM1863 3l4 1a481 481 0 0 0 0 16v38l-4 3V3zM165 3h4v59c0 2-4 2-3 0l-1-59zM180 3h4v56c0 2 1 5-2 4-2 1-1-2-2-3V3z"/><path fill="#000004" stroke="#000004" stroke-width=".1" d="m211 3 3 1v120l-3-1V3zM226 4l3-1v60h-3V4z"/><path fill="#000005" stroke="#000005" stroke-width=".1" d="m241 3 3 1v58c0 2-4 2-3 0V3zM255 4h1l3-1v57c0 2-1 5-3 3V52l-1-48zM270 4l4-1v60l-3 1V8l-1-4zM286 4h3v90l-3-1V4z"/><path fill="#000004" stroke="#000004" stroke-width=".1" d="m301 4 3-1v60h-3V4zM316 4h3v60l-3-1V4zM331 4h3v59h-3V4zM346 4h3v57c1 3-2 3-3 2V4zM361 4h3v119h-3V4zM376 4h3v56c0 1 0 4-2 3-2 1-1-2-1-3V4zM391 4h3v60c-2-1-4-1-3-3V4zM406 4h3v58c0 2-2 1-3 2V4zM421 4h3v58c1 2-2 1-3 2V4zM436 3l3 1v87c1 3-4 4-3 0V3zM451 4h3v59l-3 1V4z"/><path fill="#000005" stroke="#000005" stroke-width=".1" d="M481 3h3v60c-2 2-3-1-3-3V3zM496 3h3v59c1 2-2 1-3 1V4zM526 3l3 1v60l-3-1V3zM541 4l3-1v59c1 3-4 2-3-1V4zM556 3h3v61c-1-1-4-1-3-3V3zM571 3h4v56l-1 4h-3V3zM796 4h1l3-1v59c0 2-4 2-3 0l-1-58zM841 3l4 1v59h-3l-1-8V3zM856 4h1l3-1v59c0 2-4 2-3 0l-1-58zM872 3h3v60h-3V3zM887 3l3 1v90l-3-1V3z"/><path fill="#000004" stroke="#000004" stroke-width=".1" d="M902 4h3v59h-3V4zM917 4h3v59h-3V4zM932 4h3v59h-3V4zM947 4h3v59h-3V4zM962 4l3-1v120h-3V4zM977 4h3v60c-2-1-4-1-3-3V4z"/><path fill="#000005" stroke="#000005" stroke-width=".1" d="M208 159c3-3 5-6 10-6v11c0 11-3 23-1 34l5 1c2 1 2 6-1 6h-16c-3 0-4-4-2-5l8-1c-2-12 0-23 0-35l-5 3c-2 1-4-2-3-4l5-4zM356 156c7-4 18-2 21 6 2 5 0 11-3 15l-17 13c-2 2-3 5-3 9 6-1 13-2 20-1l4 2c1 2-1 5-3 5-7-2-15-1-22 0-2 0-5 0-5-3-1-5 0-12 4-16l16-13c2-2 3-5 3-8-1-3-6-5-9-4-5 0-7 6-12 6-3 0-3-3-2-5l8-6zM665 156c2-3 10-4 9 1v27c3 0 6 0 8 2l-2 4h-6v13c0 4-6 3-6 0v-13h-21c-2 0-3-2-4-3l22-31m-11 28h14v-21l-14 21zM797 156c2-2 5-2 8-2h21c2 0 4 3 2 5s-5 2-7 2h-15l-2 10c5-2 11-4 17-2 5 1 8 6 9 11 2 8 0 17-6 22-7 7-21 7-27-2-1-2 0-5 2-5 3-1 4 4 7 5 5 1 10 1 13-3 6-5 7-14 3-20-2-3-7-3-10-2-5 1-7 6-10 8-2 1-4 0-5-1-1-9 4-18 0-26zM947 179c2-11 10-19 18-25 2-1 5 1 5 3-5 7-13 11-15 19 6-3 14-4 19 1 7 5 7 15 3 22-5 9-18 11-25 4-6-6-6-16-5-24m11 2-5 3c-1 5 0 11 4 15 2 3 7 3 10 2 6-3 7-11 5-16s-9-5-14-4zM499 160c6-7 18-8 25-1 5 6 3 16-4 19l7 6c2 6 1 14-5 18-7 7-21 5-25-4-2-3 2-6 5-4 2 2 3 5 6 6 4 1 10 0 12-5 2-4 0-9-3-12l-11-3c-1-1-1-4 1-4l10-4c3-1 5-5 3-8s-6-3-9-3c-4 0-6 3-9 4-2 0-5-3-3-5zM56 158c7-2 15-1 20 4 6 7 8 16 7 25 0 9-1 19-7 26-5 6-14 7-21 5-8-3-12-11-13-18-2-9-3-19 1-28 3-6 7-12 13-14m2 8c-4 1-7 5-8 9-3 6-3 13-2 20 1 5 2 9 5 13 4 5 13 5 17-1 4-5 5-12 6-18 0-7 0-14-4-20-3-4-9-5-14-3z"/><path fill="#000049" stroke="#000049" stroke-width=".1" d="M361 1035h3v3h-3v-3z" opacity=".7"/><path fill="#00004A" stroke="#00004A" stroke-width=".1" d="m372 1042 4-3 3 2-4 4-3-3z" opacity=".7"/></svg>