<?xml version="1.0" encoding="UTF-8"?>
<!DOCTYPE svg PUBLIC "-//W3C//DTD SVG 1.1//EN" "http://www.w3.org/Graphics/SVG/1.1/DTD/svg11.dtd">
<svg version="1.1" id="Layer_1" xmlns="http://www.w3.org/2000/svg" xmlns:xlink="http://www.w3.org/1999/xlink" x="0px" y="0px" viewBox="-121 -121 2162 2162" enable-background="new -121 -121 2162 2162" xml:space="preserve">
<g>
	<g>
		<g id="XMLID_1_">
			<g>
				<path fill="#000005" d="M1352.35,3.56c0.0701-1.19,0.2001-2.38,0.39-3.56h2.7c0.0801,1.17,0.17,2.35,0.26,3.52      c0.14,19.47,0.13,38.95,0.01,58.42c0.38,2.19-3.7,2.12-3.33,0C1352.23,42.48,1352.3,23.02,1352.35,3.56z"/>
				<path fill="#000005" d="M1187.11,93.44c0.04-30,0-60,0.02-90c0.84,0,2.52-0.01,3.36-0.01c-0.04,29.94,0.33,59.91-0.1799,89.83      C1189.51,93.31,1187.91,93.4,1187.11,93.44z"/>
				<path fill="#000004" d="M1607.6801,16.95c-0.1001-4.35,0.4199-8.76-0.4501-13.06c1.03-0.09,3.09-0.27,4.13-0.36      c-0.24,18.83-0.04,37.66-0.1,56.49c0.02,1.25-0.23,2.44-0.73,3.56c-0.9401-0.32-3.2101,0.25-2.74-1.46      C1607.52,47.07,1607.77,32.01,1607.6801,16.95z"/>
				<path fill="#000005" d="M1502.8101,63.27c-0.8501-19.79,0.49-39.69-0.66-59.46c0.99-0.07,2.96-0.23,3.9399-0.3      c0.05,19.16,0.11,38.33-0.01,57.49C1506.35,63.12,1504.6801,64.21,1502.8101,63.27z"/>
				<path fill="#000005" d="M1472.5,61.06c-0.02-19.2-0.01-38.4,0.01-57.6c1.12,0.03,2.26,0.07,3.41,0.11      c0.25,15.47-0.0801,30.94-0.02,46.41c-0.01,4.38,0.53,8.78-0.14,13.13C1474.1,64.36,1472.0699,63.04,1472.5,61.06z"/>
				<path fill="#000005" d="M1848.12,33.49c-0.37-10,0.14-20.01,0-30.03c0.83,0.02,2.5,0.04,3.33,0.05l0.14,0.01      c-0.14,8.66-0.0599,17.33-0.0499,26c-0.01,1.68-0.02,3.35,0.02,5.03c-0.0701,8.17-0.0601,16.34,0.0099,24.51      c-0.1,1.36,0.04,2.8-0.5,4.07c-0.73,0.1-2.1899,0.3-2.9199,0.4c0.12-8.25-0.4501-16.49-0.1901-24.74      C1848,37.03,1848.0601,35.26,1848.12,33.49z"/>
				<path fill="#000004" d="M1596.0601,3.81c0.21,19.83,0.09,39.67,0.0599,59.5c-0.86,0-2.5699,0-3.4301,0      c-0.1699-19.94-0.0399-39.88-0.0699-59.82C1593.48,3.57,1595.2,3.73,1596.0601,3.81z"/>
				<path fill="#000005" d="M1427.4399,61.98c-0.1799-19.46-0.0599-38.94-0.0599-58.41l0.02-0.35c1.1699,0.14,2.34,0.27,3.5599,0.4      c-0.36,19.46,0.0801,38.93-0.21,58.39C1431.2,64.16,1427.13,64.03,1427.4399,61.98z"/>
				<path fill="#92D7FF" d="M1836.49,45.16c-0.0599-13.92,0.08-27.84-0.0699-41.76c3.89,0.1,7.7899,0.01,11.7,0.06      c0.14,10.02-0.37,20.03,0,30.03C1844.14,37.28,1840.23,41.14,1836.49,45.16z"/>
				<path fill="#000005" d="M1277.21,3.52c-3.6699,0.43-7.34,0.08-11-0.23l0.01-0.14c3.55,0.15,7.11,0,10.67,0.16      c0.3199-1.1,0.65-2.21,1-3.31h1.75c0.54,1.02,1.08,2.06,1.62,3.1c2.59,0.26,5.1899,0.38,7.8,0.37V3.5      c-2.8101,0-5.6101-0.07-8.41-0.21c-0.0601,19.56,0.12,39.14-0.0801,58.69c0.28,2.08-3.8099,2.14-3.3099-0.01      C1277.1,42.49,1277.23,23,1277.21,3.52z"/>
				<path fill="#000004" d="M1085.51,3.52c-0.25,20.05,0.13,40.11-0.2,60.16c-0.78-0.17-2.3301-0.52-3.1001-0.69      c-0.5699-2.62-0.4099-5.31-0.3999-7.97c0.1-17.15-0.0801-34.3,0.09-51.44C1082.8,3.56,1084.6,3.53,1085.51,3.52z"/>
				<path fill="#92D7FF" d="M1458.8,135c0.0699-4.27,2.0499-8.33,4.51-11.75c2.1899-3.39,7.35-3.24,10.2799-0.91      c0.9601,0.62,2.42,1.98,3.53,0.82c0.87-0.55,1.35-1.57,1.35-2.57l6.73,0.04c0,0.11,0,0.22,0,0.33      c0.27,5.02,0.62,10.06,0.01,15.07c-0.1499,1.82-0.36,3.77-0.27,5.66l-5.8799,0.27c-0.14-1.49-1.4501-2.95-3.0701-2.4      c-2.97,1.11-5.6799,3.37-9.01,3.05C1462.87,142.53,1458.9301,139.25,1458.8,135z"/>
				<path fill="#000005" d="M1255.36,168.98c0.1,3.81,4.24,5.95,7.58,6.37c3.1201-0.83,6.9901-1.98,8.1801-5.37      c0.76-3.2,0.04-7.55-3.1899-9.1c-2.8501-0.6-5.9801-0.76-8.7201,0.32C1256.37,162.57,1255.05,165.96,1255.36,168.98z       M1254.77,197.1c3.13,4.13,9.12,4.33,13.73,3.1c5-1.79,6.14-8.49,4-12.82c-1.8101-3.63-5.9301-4.94-9.49-6.12      c-1.87,1.02-3.79,1.96-5.54,3.15C1253.4301,187.03,1252.41,193.06,1254.77,197.1z M1248.25,198.81      c-2.64-6.99-0.62-15.92,6.09-19.87c-2.23-1.8-4.49-3.9-5.13-6.81c-2.2799-7.5,3.41-15.72,10.89-17.2      c4.73-0.9,10.3201-0.6,14.0701,2.8c3.7699,3.49,4.0399,9.15,3.25,13.91c-0.6001,3.12-3.65,4.71-6.03,6.37      c3.26,1.81,6.79,3.99,7.97,7.77c1.67,5.26,1.6,11.85-2.5,16c-4.66,4.65-11.75,5.53-17.98,4.51      C1254.5601,205.38,1249.9301,203.18,1248.25,198.81z"/>
				<path fill="#000004" d="M995.29,3.57c-0.23,19.95,0.01,39.91-0.12,59.87c-1.71,0.13-3.96,0.06-3.49-2.37      c-0.09-19.16-0.01-38.32-0.02-57.48C992.57,3.59,994.38,3.57,995.29,3.57z"/>
				<path fill="#000044" d="M1236.92,3.11c-0.9701-0.94-1.7301-2.07-2.5601-3.11h12.96c-0.0299,0.87-0.1,2.6-0.13,3.47      c-0.0199,0-0.0299,0-0.0499,0C1243.73,3.32,1240.3101,3.3,1236.92,3.11z"/>
				<path fill="#000005" d="M1322.34,61.94c-0.23-19.45-0.09-38.92-0.0699-58.37c0.09-1.2,0.24-2.39,0.45-3.57h2.6801      c0.0699,1.17,0.16,2.33,0.25,3.5c0.09,19.48,0.1699,38.98-0.03,58.45C1326.01,64.19,1321.92,64.16,1322.34,61.94z"/>
				<path fill="#92D7FF" d="M1791.24,92.6c0.5601-29.71,0.1801-59.45,0.2-89.17c3.88,0.04,7.78,0.03,11.6801-0.02      c0.01,20.04-0.0599,40.07,0.04,60.11c1.02-0.4,3.49,0.23,3.34-1.54c0.17-19.52,0.03-39.05,0.0601-58.57      c3.85,0.06,7.72,0.11,11.59-0.05c0.01,20.05-0.01,40.11,0.01,60.17c-8,7.52-15.55,15.52-23.4301,23.17      c-1.3199,1.61-3.87,3.17-2.71,5.63C1791.8199,92.39,1791.4301,92.53,1791.24,92.6z"/>
				<path fill="#000005" d="M1097.51,161.23c-3.33-0.2-2.98-6.18,0.3099-5.93c9.7101-0.26,19.42,0.49,29.15,0.2      c1.9301,0.31,4.78-0.61,6,1.42c0.13,3.47-2.87,5.77-4.87,8.2c-6.1799,6.85-9.41,15.62-13.25,23.85c-2.58,5.54-3.77,11.7-7,16.93      c-1.76,2.93-6.66,0.21-5.46-2.85c1.48-5.34,4.02-10.31,5.95-15.49c3.41-9.16,7.5901-18.18,14.05-25.63      C1114.1,161.77,1105.78,161.89,1097.51,161.23z"/>
				<path fill="#000005" d="M1205.63,3.35c-0.12,19.52,0.13,39.06-0.11,58.57c0.41,2.22-3.78,2.15-3.3101,0.04      c-0.1799-19.52-0.02-39.05-0.0599-58.57C1203.29,3.37,1204.46,3.34,1205.63,3.35z"/>
				<path fill="#000005" d="M1787.98,89.03c0.35-28.53-0.09-57.08,0.14-85.61c0.83,0,2.49,0.01,3.3199,0.01      c-0.0199,29.72,0.3601,59.46-0.2,89.17c-0.77,0.27-2.3,0.8-3.0699,1.07C1788.05,92.12,1787.98,90.58,1787.98,89.03z"/>
				<path fill="#92D7FF" d="M1459.42,145.69c-5.54-3.43-7.0901-10.82-5.02-16.71c1.7999-5.28,4.6899-10.97,10.0599-13.33      c4.42-1.25,9.53-0.12,13.05,2.84c0.66,0.52,0.96,1.31,0.96,2.1c0,1-0.48,2.02-1.35,2.57c-1.11,1.16-2.5699-0.2-3.53-0.82      c-2.9299-2.33-8.09-2.48-10.2799,0.91c-2.4601,3.42-4.4401,7.48-4.51,11.75c0.13,4.25,4.0699,7.53,8.1799,7.61      c3.3301,0.32,6.04-1.94,9.01-3.05c1.62-0.55,2.9301,0.91,3.0701,2.4c0.0699,0.81-0.2001,1.62-0.9501,2.13      C1473.05,148.4,1465,149.96,1459.42,145.69z"/>
				<path fill="#000005" d="M1232.28,61.99c-0.16-19.46-0.13-38.93-0.01-58.4c0.0699-1.2,0.21-2.39,0.35-3.59h1.74      c0.83,1.04,1.59,2.17,2.5601,3.11c3.39,0.19,6.8099,0.21,10.22,0.36v0.01c-3.83,0.26-7.67,0.34-11.47-0.21      c-0.05,19.56,0.12,39.13-0.0701,58.68C1235.92,64.05,1231.83,64.15,1232.28,61.99z"/>
				<path fill="#000005" d="M1412.3101,118.99c0.12-38.47-0.04-76.95,0.08-115.42c0.0599-1.2,0.1799-2.39,0.36-3.57h2.7      c0.0701,1.2,0.17,2.4,0.26,3.61c0.1901,39.96,0.01,79.92,0.0901,119.88c-0.7201-0.01-2.15-0.01-2.8601-0.02      C1412.11,122.14,1412.41,120.47,1412.3101,118.99z"/>
				<path fill="#000004" d="M1832.92,48.71c0.0499-15.02-0.0701-30.05,0.0599-45.07V3.29c1.13,0.04,2.27,0.08,3.4401,0.11      c0.1499,13.92,0.01,27.84,0.0699,41.76c-0.01,1.48,0,2.95,0.03,4.43c-0.15,4.54,0.3099,9.12-0.35,13.62      c-1.0601,0.14-2.12,0.18-3.14,0.24c-0.1-3.21-0.12-6.41-0.11-9.62C1832.89,52.12,1832.89,50.42,1832.92,48.71z"/>
				<path fill="#000005" d="M1397.4,61.95c-0.25-19.46-0.0801-38.93-0.0701-58.39C1397.4,2.37,1397.55,1.18,1397.76,0h2.66      c0.08,1.2,0.1799,2.39,0.2699,3.59c0.1101,19.44,0.1801,38.9-0.0199,58.33C1401.05,64.18,1396.99,64.21,1397.4,61.95z"/>
				<path fill="#000004" d="M1532.65,3.56c0.87-0.02,2.62-0.05,3.49-0.07c0.1,19.92,0.08,39.84,0.01,59.75      c-0.86,0.04-2.5601,0.11-3.42,0.15C1532.53,43.45,1532.6899,23.5,1532.65,3.56z"/>
				<path fill="#000005" d="M1220.15,63.28c-0.74,0.03-2.22,0.08-2.9601,0.11c-0.0199-20-0.0199-40,0.01-60      c1.1001-0.03,2.2301-0.08,3.3601-0.12l0.0099,0.32c0.12,18.11-0.0499,36.24,0.0901,54.36      C1220.6,59.73,1220.73,61.57,1220.15,63.28z"/>
				<path fill="#000005" d="M1532.9,173.57c-2.53,0.57-4.84-2.18-4.22-4.59c1.71-2.98,4.8999-4.58,7.33-6.9      c2.67-2.33,5.65-5.45,9.59-4.6c2.61,1.96,0.37,5.73,0.84,8.47c1.3501,14.73-3.2899,29.34-0.9199,44.05      c2.4199,0.39,5.97-0.79,7.33,1.95c1.4601,2.02-0.4,5.38-2.86,5.31c-6.35,0.06-12.71,0.2-19.04-0.07      c-3.0299-0.3-3.5299-4.93-0.9099-6.2c2.4399-1.16,5.2999-0.64,7.9399-0.79c-1.8099-13.53,0.8301-27.02,1.1801-40.55      C1537.08,170.98,1535.1801,172.62,1532.9,173.57z"/>
				<path fill="#92D7FF" d="M1259.21,161.2c2.74-1.08,5.87-0.92,8.7201-0.32c3.23,1.55,3.95,5.9,3.1899,9.1      c-1.1899,3.39-5.0599,4.54-8.1801,5.37c-3.34-0.42-7.48-2.56-7.58-6.37C1255.05,165.96,1256.37,162.57,1259.21,161.2z"/>
				<path fill="#000004" d="M1667.87,63.27c-0.05-19.93-0.0699-39.86,0.01-59.78c0.88,0.01,2.64,0.05,3.52,0.07      c-0.09,19.93,0.11,39.87-0.1,59.8C1670.4399,63.34,1668.73,63.29,1667.87,63.27z"/>
				<path fill="#000005" d="M1262.12,123.53c0-39.98-0.1-79.96,0.05-119.94c0.09-1.2,0.26-2.4,0.4299-3.59h1.97      c0.5601,1.04,1.1101,2.09,1.65,3.15l-0.01,0.14c-0.21-0.02-0.4099-0.04-0.62-0.06c-0.0299,39.28,0.05,78.56-0.0399,117.84      C1266,123.56,1264.09,123.76,1262.12,123.53z"/>
				<path fill="#000004" d="M1066.92,3.5c1,0.08,2.99,0.22,3.99,0.3c-0.89,4-0.4301,8.12-0.49,12.18      c-0.0701,15.79,0.12,31.59-0.1001,47.38c-0.85-0.02-2.5499-0.06-3.3999-0.08C1066.84,43.35,1066.83,23.43,1066.92,3.5z"/>
				<path fill="#000005" d="M1818.16,63.53c-0.02-20.06,0-40.12-0.01-60.17c1.11-0.05,2.22-0.11,3.37-0.17l0.01,0.38      c0.15,18.66-0.0801,37.32,0.12,55.98c-0.16,1.19-0.05,2.49-0.6,3.59C1820.33,63.24,1818.88,63.43,1818.16,63.53z"/>
				<path fill="#000004" d="M1727.85,3.45c0.88,0.03,2.64,0.08,3.52,0.11c-0.1,20.02,0.14,40.04-0.12,60.06      c-0.8-0.15-2.39-0.44-3.1899-0.59c-0.4701-3.33-0.26-6.7-0.26-10.05C1727.85,36.47,1727.73,19.96,1727.85,3.45z"/>
				<path fill="#000005" d="M1742.8101,53.02c0.0199-16.47-0.01-32.95,0.0099-49.43c0.91-0.01,2.7201-0.05,3.63-0.06      c-0.22,19.9,0.3,39.83-0.25,59.71c-0.58,0.07-1.73,0.19-2.2999,0.25C1741.7,60.83,1743.23,56.39,1742.8101,53.02z"/>
				<path fill="#000004" d="M1656.26,63.46c-1.73,0.1-3.88,0.08-3.46-2.34c-0.14-19.17-0.02-38.35-0.04-57.52      c0.89-0.02,2.6799-0.06,3.5699-0.08C1656.25,23.5,1656.39,43.48,1656.26,63.46z"/>
				<path fill="#000044" d="M1281.26,3.1c-0.54-1.04-1.08-2.08-1.62-3.1h13.29c-0.4,1.13-0.77,2.27-1.1001,3.41      c-0.9299,0.04-1.85,0.06-2.7699,0.06C1286.45,3.48,1283.85,3.36,1281.26,3.1z"/>
				<path fill="#92D7FF" d="M1576.28,158.45c-10.13,3.39-14.9501,14.61-15.85,24.51c-0.41,9.75,0.2599,20.37,6.0699,28.6      c6.92,10.04,23.91,9.61,30.6801-0.38c5.12-7.27,5.86-16.53,6.1899-25.14c0.36-8.21-1.72-16.88-7.33-23.09      C1591.16,157.56,1583.01,156.36,1576.28,158.45z M1528.6801,168.98c-0.62,2.41,1.6899,5.16,4.22,4.59      c2.28-0.95,4.1799-2.59,6.26-3.92c-0.35,13.53-2.99,27.02-1.1801,40.55c-2.64,0.15-5.5-0.37-7.9399,0.79      c-2.62,1.27-2.12,5.9,0.9099,6.2c6.3301,0.27,12.6901,0.13,19.04,0.07c2.46,0.07,4.3201-3.29,2.86-5.31      c-1.36-2.74-4.91-1.56-7.33-1.95c-2.37-14.71,2.27-29.32,0.9199-44.05c-0.47-2.74,1.77-6.51-0.84-8.47      c-3.9399-0.85-6.9199,2.27-9.59,4.6C1533.58,164.4,1530.39,166,1528.6801,168.98z M1397.61,176.25      c1.29,5.8,6.79,9.82,12.39,10.96c4.4301,0.92,8.7-0.96,12.85-2.26c-1.97,3.87-3.97,7.91-7.38,10.73      c-4.0399,3.5-9.4,4.57-14.08,6.85c-2.61,1.7-0.3101,6.26,2.63,5.42c4.27-0.79,8.0499-3.14,11.9299-5      c8.04-3.96,12.4301-12.56,14.41-20.94c1.1801-5.87,2.1801-12.32-0.45-17.96c-2.36-4.67-6.5601-8.89-11.92-9.69      c-5.58-0.61-11.9299,0.27-15.99,4.5C1397.34,163.22,1396.3101,170.25,1397.61,176.25z M372.17,1042.4      c-3.01,0.13-6.18-0.6801-7.67-3.4401l11.44-0.4099c0.9,0.7799,1.8,1.58,2.71,2.3899c24.99-24.78,49.79-49.7599,74.7-74.6199      c165.27-165.36,330.76-330.49,496.02-495.86c30.53-30.64,61.28-61.07,91.6801-91.84c0.88-0.9,1.7799-1.79,2.6899-2.67      c0.89-1.87,2.01-3.75,2.04-5.88c0.37-4.88-3.75-9.68-8.73-9.59c-222.35-0.06-444.7001-0.01-667.04-0.03      c-4.57-0.28-8.26,3.22-9.26,7.5c0.01,0.84,0.04,2.51,0.06,3.35c-0.08,221.21-0.08,442.43,0,663.64l-0.06,3.4h-0.01      c0.91,2.4501,2.03,5.0901,4.54,6.3c2.9,1.87,6.48,1.13,9.59,0.28l-0.13-0.12C373.88,1043.98,373.03,1043.1801,372.17,1042.4z       M1097.51,161.23c8.27,0.66,16.59,0.54,24.88,0.7c-6.46,7.45-10.64,16.47-14.05,25.63c-1.9299,5.18-4.47,10.15-5.95,15.49      c-1.2001,3.06,3.7,5.78,5.46,2.85c3.23-5.23,4.42-11.39,7-16.93c3.84-8.23,7.0701-17,13.25-23.85c2-2.43,5-4.73,4.87-8.2      c-1.22-2.03-4.0699-1.11-6-1.42c-9.73,0.29-19.4399-0.46-29.15-0.2C1094.53,155.05,1094.1801,161.03,1097.51,161.23z       M1249.21,172.13c0.64,2.91,2.9,5.01,5.13,6.81c-6.71,3.95-8.73,12.88-6.09,19.87c1.6801,4.37,6.3101,6.57,10.63,7.48      c6.23,1.02,13.3199,0.14,17.98-4.51c4.1-4.15,4.17-10.74,2.5-16c-1.1799-3.78-4.71-5.96-7.97-7.77      c2.38-1.66,5.4299-3.25,6.03-6.37c0.7899-4.76,0.5199-10.42-3.25-13.91c-3.75-3.4-9.3401-3.7-14.0701-2.8      C1252.62,156.41,1246.9301,164.63,1249.21,172.13z M1477.51,118.49c-3.52-2.96-8.63-4.09-13.05-2.84      c-5.37,2.36-8.26,8.05-10.0599,13.33c-2.0701,5.89-0.52,13.28,5.02,16.71c5.58,4.27,13.63,2.71,18.6899-1.6      c0.75-0.51,1.02-1.32,0.9501-2.13l5.8799-0.27c0.1001,2.04,0.54,4.01,1.77,5.69c2.1001,1.2,5.4301-0.75,4.49-3.32      c-0.76-4.72-0.47-9.6,0.49-14.27c2.4-3.39,5.3-6.46,8.6901-8.9c1.71,3.81,0.8199,8.07,1.36,12.09c0.6,5,0.88,10.03,1.29,15.04      c0.71,3.07,6.1599,2.23,5.5699-1.08c0.02-7.05-1.89-14-1.4299-21.06c2.3099-1.98,5.5199-5.18,8.72-4      c3.72,7.79,2.15,16.91,4.36,25.12c0.51,2.96,5.96,1.8,5.47-1.08c-0.9399-8.69-1.7999-17.45-3.6-26      c-2.4399-6.39-11.41-4.96-15.23-0.65c-1.48-1.87-3.21-4.17-5.89-3.96c-4.78-0.1-7.4399,4.59-10.3,7.66      c0.13-1.99,0.3501-3.97,0.42-5.96c0.37-2.34-3-4.6-4.76-2.6c-1.38,1.76-1.16,4.11-1.16,6.22l-6.73-0.04      C1478.47,119.8,1478.17,119.01,1477.51,118.49z M1716.3199,123.23c0.0701-39.89-0.0099-79.77,0.05-119.66l0.59-0.01      c3.62-0.08,7.25-0.18,10.89-0.11c-0.12,16.51,0,33.02-0.0499,49.53c0,3.35-0.2101,6.72,0.26,10.05      c0.7999,0.15,2.3899,0.44,3.1899,0.59c0.26-20.02,0.02-40.04,0.12-60.06c3.8101-0.01,7.63-0.02,11.45,0.03      c-0.0199,16.48,0.01,32.96-0.0099,49.43c0.4199,3.37-1.1101,7.81,1.09,10.47c0.5699-0.06,1.72-0.18,2.2999-0.25      c0.55-19.88,0.03-39.81,0.25-59.71l0.53-0.01c3.63-0.04,7.28-0.11,10.9301-0.07c-0.12,16.86,0.01,33.72-0.0701,50.57      c-0.01,3.01-0.15,6.03,0.3201,9.01c0.7899,0.15,2.37,0.45,3.15,0.59c0.2799-20.03,0.0199-40.06,0.1399-60.09l0.52-0.01      c3.64-0.02,7.28-0.07,10.9401-0.09c-0.03,19.19-0.11,38.39,0.02,57.58c-0.8401,2.6,3.5599,3.79,3.45,1.03      c0.24-19.53,0.1-39.08,0.0599-58.62c3.89,0.01,7.78,0.01,11.6801,0c-0.23,28.53,0.21,57.08-0.14,85.61      c0,1.55,0.0701,3.09,0.1901,4.64c-5.5,4.62-10.2001,10.12-15.41,15.07c-214.5,214.48-428.98,428.97-643.47,643.45      c-107.04,106.97-213.92,214.11-321.1,320.94c-265.17,265.1801-530.36,530.35-795.53,795.54c-2.9,2.9099-5.8,5.8199-8.81,8.63      c-0.34-6.4301-0.15-12.8601-0.19-19.29c0-116.33,0-232.66,0-348.99C3.55,1459,3.93,1408.98,3.82,1358.96      c-0.01-233.97,0-467.9399,0.08-701.9c0.87-41.34,0.2-82.7,0.57-124.05c-0.2-35.69,0.58-71.37,0.13-107.06      c-0.03-81.63-0.36-163.27-0.41-244.9c-0.51-10.99-0.25-21.99-0.31-32.98C3.84,105.73,3.87,63.38,3.62,21.04      c-0.04-3.78-0.07-7.91,2.31-11.08c2.98-4.68,8.71-6.64,14.05-6.47c13.48,0.05,26.96-0.03,40.43,0.05      c0.07-1.18,0.18-2.36,0.28-3.54h2.67c0.18,1.19,0.31,2.39,0.4,3.6c3.88-0.06,7.76-0.07,11.64-0.03l0.01-0.33      c1.18,0.14,2.35,0.27,3.53,0.4c3.78-0.09,7.55-0.12,11.33-0.08c0.11-1.19,0.27-2.38,0.46-3.56h2.66c0.1,1.17,0.18,2.33,0.26,3.5      c3.91,0.06,7.82,0.06,11.74,0c0.07-1.17,0.16-2.33,0.25-3.5h2.69c0.18,1.19,0.33,2.38,0.43,3.58c3.86-0.04,7.73-0.04,11.59-0.01      c0.08-1.2,0.21-2.39,0.37-3.57h2.72c0.1,1.17,0.18,2.35,0.26,3.52c3.92,0.05,7.83,0.03,11.75-0.05      c0.07-1.16,0.15-2.31,0.23-3.47h2.71c0.19,1.19,0.34,2.38,0.44,3.58c3.87-0.04,7.73-0.04,11.6,0l0.01-0.26      c1.12,0.03,2.25,0.06,3.38,0.09c3.88,0.08,7.76,0.05,11.64-0.01c1.15-0.01,2.31-0.01,3.46,0c3.86,0.04,7.71,0.08,11.57,0.02      c1.11-0.01,2.23-0.02,3.36-0.01c3.9,0.03,7.81,0.11,11.72,0.02c1.15-0.02,2.31-0.04,3.47-0.04c3.85,0.03,7.71,0.08,11.58,0.1      c0.89,0.01,2.67,0.03,3.57,0.05c3.8,0.01,7.6,0.02,11.41,0.02c0.87-0.03,2.61-0.07,3.48-0.09c3.81-0.05,7.62-0.04,11.43,0.02      c1.14,0.02,2.28,0.05,3.42,0.09c3.84-0.02,7.68-0.02,11.51-0.04h0.32c0.83-0.02,2.49-0.05,3.31-0.07      c3.59-0.08,7.19-0.16,10.78,0.15l0.3,0.22c0.99-0.09,2.96-0.26,3.94-0.35c3.64-0.16,7.28-0.01,10.91,0.04l0.58,0.01      c0.92,0.01,2.76,0.03,3.68,0.04c3.8-0.03,7.59-0.03,11.39-0.02c0.87-0.03,2.62-0.07,3.49-0.09c3.62-0.06,7.26-0.01,10.89,0.05      l0.62,0.02c0.92,0.01,2.77,0.02,3.69,0.03c3.79-0.03,7.59-0.03,11.38,0.02c0.91,0,2.72-0.02,3.63-0.02      c3.79-0.03,7.59-0.03,11.38,0.02c0.92,0,2.76-0.01,3.68-0.02c3.79-0.03,7.58-0.03,11.37,0.03c0.89-0.01,2.67-0.01,3.55-0.02      c3.79-0.04,7.58-0.04,11.37,0.01c0.91-0.01,2.74-0.03,3.65-0.03c3.78-0.02,7.56-0.02,11.34,0.03c0.91,0,2.73-0.02,3.64-0.02      c3.81-0.03,7.62-0.03,11.44,0.01c0.89,0,2.67,0,3.56,0c3.8-0.04,7.61-0.04,11.42,0.01c0.89-0.01,2.68-0.04,3.58-0.05l0.65-0.01      c3.64-0.05,7.27-0.11,10.91-0.06c0.88,0.02,2.63,0.06,3.51,0.09c3.8-0.01,7.6-0.02,11.41,0.03c0.9-0.01,2.7-0.01,3.6-0.02      c3.85-0.04,7.69-0.03,11.54,0.06l0.01-0.37c1.13,0.05,2.27,0.09,3.42,0.13c3.84,0.13,7.69,0.08,11.55,0.03c0.87,0,2.62,0,3.5,0      c3.86,0.02,7.73,0.05,11.6,0.02c1.15,0,2.31-0.01,3.47,0c3.88,0.03,7.76,0.05,11.65-0.07c1.14-0.02,2.28-0.04,3.44-0.04      c3.77,0.06,7.54,0.13,11.3199,0.15c0.88,0.01,2.65,0.02,3.54,0.03l0.54-0.01c0.99-0.03,1.98-0.03,2.97-0.04      c2.63,0,5.2599,0.13,7.88,0.34c0.9-0.07,2.71-0.22,3.61-0.3c3.89-0.17,7.79-0.01,11.69-0.05c0.83-0.01,2.48-0.01,3.3-0.01      c3.89,0.02,7.79,0,11.68-0.03c1.14,0,2.28,0,3.43,0.01c3.87,0.04,7.74,0.12,11.61-0.02c1.13-0.04,2.28-0.06,3.4301-0.06      c3.86,0.05,7.72,0.18,11.59,0.04c1.12-0.04,2.26-0.09,3.4-0.14l0.02,0.33c3.86-0.04,7.72-0.03,11.58,0.04l0.03-0.48      c1.16,0.11,2.33,0.21,3.5,0.32c3.85,0.11,7.7,0.12,11.56,0.04c0.1-1.17,0.25-2.33,0.44-3.49h2.66c0.09,1.19,0.18,2.38,0.26,3.57      c3.88-0.04,7.75-0.03,11.63,0.04l0.02-0.39c1.1299-0.01,2.2599-0.02,3.4-0.03l0.02,0.41c3.88-0.06,7.77-0.07,11.67-0.03      c0.05-1.19,0.16-2.38,0.26-3.57h2.7c0.16,1.16,0.29,2.33,0.4,3.49c3.84,0.06,7.68,0.07,11.53,0.03      c0.11-1.18,0.27-2.35,0.47-3.52h2.62c0.09,1.19,0.19,2.37,0.26,3.56c3.88-0.02,7.75-0.02,11.63,0.01      c0.09-1.19,0.24-2.38,0.45-3.57h2.68c0.08,1.17,0.16,2.33,0.24,3.5c3.9,0.06,7.81,0.06,11.71-0.01      c0.09-1.17,0.23-2.33,0.41-3.49h2.66c0.1,1.19,0.21,2.38,0.29,3.58c3.87-0.04,7.75-0.04,11.63-0.02      c0.09-1.19,0.24-2.38,0.43-3.56h2.68c0.08,1.17,0.17,2.34,0.25,3.51c3.87,0.06,7.74,0.05,11.61-0.05      c1.23,0.04,2.45,0.07,3.7,0.11c3.79-0.03,7.59-0.04,11.39,0.01l0.01-0.3c1.18,0.12,2.35,0.24,3.56,0.36      c3.84-0.1,7.69-0.12,11.54-0.06c0.05-1.2,0.13-2.39,0.22-3.58h2.72c0.18,1.19,0.32,2.39,0.44,3.59      c3.85-0.05,7.72-0.06,11.59-0.03l0.01-0.41c1.14,0.16,2.3,0.33,3.46,0.49c3.83-0.08,7.66-0.09,11.5-0.12l0.27-0.01      c-0.06-1.17-0.11-2.34-0.15-3.51h2.72c0.29,0.81,0.88,2.44,1.18,3.26c3.42,0.16,6.85,0.09,10.27-0.24      c0.46-1.01,0.95-2.02,1.46-3.02h2.04c0.35,1.07,0.71,2.15,1.08,3.22c3.45,0.2,6.92,0.17,10.38-0.11      c0.49-1.05,1.01-2.08,1.56-3.11h2.01c0.35,1.06,0.72,2.12,1.09,3.19c3.55,0.16,7.12,0.2,10.68,0.09      c0.32-1.1,0.67-2.19,1.05-3.28h2.47c0.11,1.19,0.24,2.37,0.37,3.56c3.83,0,7.66,0,11.5-0.03h0.3c0.84-0.01,2.5-0.03,3.34-0.04      c3.88-0.03,7.77-0.08,11.66-0.08c0.84,0,2.52,0.02,3.36,0.02c3.84,0.04,7.68,0.02,11.54,0.05c0.89,0.02,2.69,0.05,3.58,0.07      c3.8,0.02,7.61-0.03,11.42,0.01c0.89,0.06,2.67,0.18,3.56,0.24c3.56-0.39,7.14,0.1,10.72-0.24h0.65c0.9399,0,2.83,0,3.78,0      c3.78-0.02,7.58-0.02,11.37,0.03c0.91-0.01,2.73-0.02,3.64-0.02c3.78-0.03,7.58-0.03,11.37,0.01c0.9,0,2.7,0,3.6,0      c3.76-0.04,7.53-0.03,11.3-0.03c0.87-0.02,2.62-0.06,3.49-0.08c3.64-0.05,7.29,0.01,10.94,0.06l0.63,0.01      c0.92,0.01,2.75,0.02,3.66,0.03c3.78-0.03,7.56-0.03,11.35,0.02c0.01,19.16-0.0699,38.32,0.02,57.48      c-0.47,2.43,1.78,2.5,3.49,2.37c0.13-19.96-0.11-39.92,0.12-59.87c3.81-0.03,7.62-0.03,11.44,0.01      c0.02,19.92-0.07,39.84,0.05,59.76c1.1299-0.01,2.28-0.02,3.4399-0.04c0.15-19.91,0.01-39.82,0.07-59.72      c3.81-0.04,7.62-0.04,11.43,0.01c0.03,19.16-0.08,38.32,0.04,57.47c-0.92,3.39,4.48,3.18,3.48,0.01      c0.1-19.16-0.01-38.33,0.05-57.5c3.83-0.04,7.6699-0.03,11.52,0.03c0.0099,29.15-0.0601,58.3,0.0299,87.45      c-0.2999,1.91,0.9301,3.06,2.77,2.54c0.87-1.39,0.6901-3.08,0.78-4.65c-0.08-28.46-0.04-56.91-0.02-85.37      c3.8-0.04,7.6-0.03,11.41,0.02c0,18.8,0,37.6-0.01,56.4c0.0499,1.36-0.02,4.15,2.09,3.54c1.6901,0.12,1.37-2.41,1.52-3.53      c-0.03-18.83-0.05-37.66,0-56.49h0.6899c3.6101,0.16,7.2301-0.19,10.8501-0.01c-0.0901,19.93-0.0801,39.85,0,59.78      c0.85,0.02,2.5499,0.06,3.3999,0.08c0.2201-15.79,0.03-31.59,0.1001-47.38c0.0599-4.06-0.4-8.18,0.49-12.18l0.27-0.2      c3.5599-0.12,7.1399,0.23,10.72-0.02c-0.17,17.14,0.01,34.29-0.09,51.44c-0.01,2.66-0.17,5.35,0.3999,7.97      c0.77,0.17,2.3201,0.52,3.1001,0.69c0.33-20.05-0.05-40.11,0.2-60.16c3.8,0.03,7.62,0.03,11.4399,0.09      c0.03,19.97-0.1699,39.95,0.1101,59.92c1.6399-0.11,3.95,0.01,3.3799-2.43c0.14-19.15-0.0199-38.32,0.0601-57.48      c3.76-0.08,7.52-0.1,11.29-0.04c0.02,39.96-0.0601,79.92,0.0399,119.87c1.17-0.02,2.3501-0.06,3.55-0.09      c0.02-34.11,0-68.21,0.01-102.32c0.0499-5.82-0.21-11.65,0.23-17.46l0.54-0.01c3.5599,0.38,7.13-0.18,10.72-0.13      c-0.05,19.96-0.13,39.91,0.04,59.87c0.85,0.01,2.5499,0.02,3.39,0.02c0.2-19.94,0.0099-39.88,0.1-59.82h0.5499      c3.64-0.01,7.28-0.07,10.9301-0.08c-0.12,17.19,0.02,34.38-0.0701,51.57c0.3601,3.1-1.6,9.17,3.51,8.65      c0.26-20.07,0.12-40.15,0.0701-60.22c3.84,0.04,7.6899,0.04,11.5499-0.03c-0.1499,16.85,0,33.71-0.08,50.57      c-0.01,3.02-0.16,6.07,0.36,9.06c0.77,0.16,2.3201,0.48,3.09,0.64c0.29-20.1,0.14-40.21,0.0801-60.31      c1.25,0.02,2.5,0.03,3.75,0.05c1.1,0.13,2.27,0.1,3.4399,0.03c1.5,0.01,2.99,0.02,4.48,0c-0.1699,19.51-0.1899,39.05,0.02,58.55      c-0.58,2.04,4.25,2.21,3.3301,0c0.24-19.51,0.1-39.04,0.0599-58.56c3.88,0.02,7.76,0.06,11.65,0.01c-0.02,30,0.02,60-0.02,90      c0.8-0.04,2.4-0.13,3.2001-0.18c0.5099-29.92,0.1399-59.89,0.1799-89.83c3.88,0.03,7.77,0.05,11.66-0.04      c0.0399,19.52-0.12,39.05,0.0599,58.57c-0.47,2.11,3.7201,2.18,3.3101-0.04c0.24-19.51-0.01-39.05,0.11-58.57      c3.85,0.05,7.7,0.18,11.5699,0.04c-0.0299,20-0.0299,40-0.01,60c0.7401-0.03,2.2201-0.08,2.9601-0.11      c0.58-1.71,0.45-3.55,0.51-5.33c-0.14-18.12,0.0299-36.25-0.0901-54.36c3.89-0.06,7.79-0.05,11.7001,0      c-0.12,19.47-0.15,38.94,0.01,58.4c-0.4501,2.16,3.64,2.06,3.3199-0.04c0.1901-19.55,0.02-39.12,0.0701-58.68      c3.7999,0.55,7.64,0.47,11.47,0.21c0.0599,19.51-0.11,39.03,0.0699,58.53c-0.3999,2.15,3.52,2.03,3.28-0.07      c0.16-19.45,0.0701-38.92,0.04-58.38c3.87-0.02,7.75-0.02,11.64,0.03c-0.15,39.98-0.05,79.96-0.05,119.94      c1.97,0.23,3.88,0.03,3.4301-2.46c0.09-39.28,0.01-78.56,0.0399-117.84c0.2101,0.02,0.41,0.04,0.62,0.06      c3.66,0.31,7.3301,0.66,11,0.23c0.02,19.48-0.11,38.97,0.05,58.45c-0.5,2.15,3.59,2.09,3.3099,0.01      c0.2001-19.55,0.02-39.13,0.0801-58.69c2.7999,0.14,5.6,0.21,8.41,0.21c1.0399,0,2.0699-0.01,3.11-0.03      c0.01,19.98-0.0701,39.96,0.0399,59.95c1.26-0.21,3.51,0.57,3.3301-1.51c0.23-19.47,0.12-38.96,0.0399-58.43      c3.9,0.07,7.8,0.08,11.7201,0.02c-0.05,19.48-0.15,38.98,0.0399,58.45c-0.46,2.26,3.63,2.07,3.3101,0.02      c0.14-19.46,0.12-38.93,0-58.39c3.87-0.04,7.74-0.04,11.62-0.01c-0.02,19.45-0.16,38.92,0.0699,58.37      c-0.4199,2.22,3.67,2.25,3.28,0.01c0.2-19.47,0.12-38.97,0.03-58.45c3.9,0.06,7.8199,0.06,11.74-0.01      c-0.21,27.49,0.02,54.99-0.11,82.48c0.01,2.47-0.2101,5.01,0.48,7.42c0.75,0.01,2.27,0.03,3.02,0.03      c0.02-29.95,0.0699-59.9-0.02-89.85c3.86-0.03,7.72-0.03,11.59-0.01c-0.0499,19.46-0.12,38.92,0.03,58.38      c-0.37,2.12,3.71,2.19,3.33,0c0.12-19.47,0.13-38.95-0.01-58.42c3.91,0.04,7.8301,0.03,11.75-0.05c-0.11,19.5-0.13,39,0,58.5      c-0.26,2.07,3.7301,2.2,3.3301,0.05c0.1899-19.47,0.08-38.96,0.0499-58.44c3.8501-0.04,7.7101-0.04,11.5801-0.01      c-0.0601,16.82,0.02,33.65-0.03,50.48c0.02,2.85-0.24,5.74,0.27,8.56c-0.11,1.67,3.6799,1.18,3.1-0.67      c0.3199-19.42-0.2-38.86,0.25-58.29c3.76-0.1,7.54-0.13,11.33-0.09c-0.01,19.46-0.1799,38.93,0.0701,58.39      c-0.41,2.26,3.65,2.23,3.27-0.03c0.2-19.43,0.13-38.89,0.0199-58.33c3.89-0.05,7.79-0.05,11.7001-0.02      c-0.12,38.47,0.04,76.95-0.08,115.42c0.1,1.48-0.2001,3.15,0.6299,4.48c0.7101,0.01,2.14,0.01,2.8601,0.02      c-0.0801-39.96,0.1-79.92-0.0901-119.88c3.88-0.07,7.77-0.08,11.67-0.04c0,19.47-0.12,38.95,0.0599,58.41      c-0.3099,2.05,3.76,2.18,3.3101,0.03c0.29-19.46-0.15-38.93,0.21-58.39c3.8201-0.08,7.65-0.1,11.49-0.04      c0.01,19.45-0.1399,38.91,0.0701,58.36c-0.17,1.87,2.12,1.26,3.28,1.58c0.2-19.96-0.16-39.92,0.1799-59.88      c3.8201-0.09,7.65-0.12,11.49-0.07c-0.03,19.46-0.13,38.93,0.04,58.39c-0.3,2.07,3.8099,2.19,3.3,0.03      c0.1799-19.53,0.0199-39.07,0.0699-58.6c3.87,0.16,7.74,0.02,11.63,0.07c-0.02,19.2-0.03,38.4-0.01,57.6      c-0.4301,1.98,1.6,3.3,3.26,2.05c0.67-4.35,0.13-8.75,0.14-13.13c-0.0601-15.47,0.27-30.94,0.02-46.41      c3.83,0.02,7.6699-0.12,11.5199,0.02c0.2001,29.46-0.08,58.93,0.13,88.39c0.04,2.78,4.53,1.7,3.4901-0.96      c0.1599-29.05,0-58.11,0.08-87.16c3.5699,0.04,7.12-0.52,10.7-0.26l0.3101,0.21c1.15,19.77-0.1901,39.67,0.66,59.46      c1.87,0.94,3.5399-0.15,3.2699-2.27c0.12-19.16,0.0601-38.33,0.01-57.49c3.65-0.15,7.3201-0.04,10.99,0.01l0.51,0.01      c0.0601,20.04-0.1699,40.08,0.11,60.11c0.79-0.16,2.38-0.47,3.17-0.63c0.8-19.78-0.02-39.64,0.4-59.44      c3.78-0.02,7.58-0.02,11.38-0.01c0.0399,19.94-0.12,39.89,0.08,59.83c0.86-0.04,2.5601-0.11,3.42-0.15      c0.0699-19.91,0.09-39.83-0.01-59.75c3.7999-0.04,7.61-0.02,11.4299-0.06c-0.0199,20.09-0.21,40.19,0.1001,60.28      c0.76-0.18,2.2999-0.56,3.0599-0.75c0.62-2.6,0.41-5.31,0.4401-7.96c-0.1001-17.19,0.0499-34.39-0.0801-51.58      c3.8401,0.01,7.6801,0.07,11.53-0.01c-0.13,40.01-0.08,80.02-0.03,120.02c1.13,0,2.3101-0.01,3.48-0.02      c0.01-39.93,0.13-79.86-0.0499-119.79c3.85-0.09,7.71-0.09,11.59-0.04c0.04,19.87-0.09,39.75,0.0601,59.62      c1.01,0.14,2.0399,0.27,3.09,0.41c1.05-19.98,0.05-40.04,0.52-60.05c3.77-0.04,7.5499,0.05,11.34-0.07      c0.03,19.94-0.1,39.88,0.0699,59.82c0.8601,0,2.5701,0,3.4301,0c0.03-19.83,0.15-39.67-0.0599-59.5      c3.58-0.54,7.2-0.49,10.8199-0.17l0.35,0.25c0.87,4.3,0.35,8.71,0.4501,13.06c0.09,15.06-0.16,30.12,0.11,45.17      c-0.4701,1.71,1.7999,1.14,2.74,1.46c0.5-1.12,0.75-2.31,0.73-3.56c0.0599-18.83-0.14-37.66,0.1-56.49      c3.76,0.01,7.54,0.02,11.33,0.07c0.02,19.16-0.0699,38.33,0.03,57.49c-0.47,2.4,1.79,2.49,3.4601,2.39      c0.2-19.98-0.1101-39.95,0.1499-59.92c3.8101-0.02,7.62-0.02,11.4501,0.03c-0.05,26.79,0.01,53.57-0.03,80.35      c0.0699,3.15-0.41,6.41,0.53,9.47c0.98,0.04,1.98,0.05,3,0.03c0.15-29.96-0.11-59.92,0.13-89.87      c3.77-0.03,7.5499-0.03,11.35,0.03c0.02,19.17-0.1,38.35,0.04,57.52c-0.42,2.42,1.73,2.44,3.46,2.34      c0.13-19.98-0.01-39.96,0.0699-59.94l0.63-0.01c3.63-0.03,7.27-0.08,10.92-0.02c-0.08,19.92-0.0601,39.85-0.01,59.78      c0.86,0.02,2.5699,0.07,3.4301,0.09c0.21-19.93,0.01-39.87,0.1-59.8c3.75-0.01,7.52-0.02,11.2899,0.02      c0.02,19.95-0.08,39.9,0.05,59.86c1.77,0.19,3.92,0.03,3.5-2.44c0.12-19.13-0.02-38.28,0.05-57.42      c3.8099-0.04,7.63-0.04,11.47,0.01c0.01,19.92-0.12,39.84,0.0599,59.76c0.8501-0.02,2.5601-0.05,3.41-0.06      c0.14-19.9,0.01-39.8,0.0701-59.69c3.8099-0.06,7.63-0.06,11.47-0.01c-0.03,30.14-0.01,60.28-0.01,90.42      c0.1899,9.92-0.4401,19.86,0.36,29.76C1714.17,123.59,1715.24,123.41,1716.3199,123.23z"/>
				<path fill="#000004" d="M1053.86,63.53c-2.11,0.61-2.04-2.18-2.09-3.54c0.01-18.8,0.01-37.6,0.01-56.4      c0.9-0.02,2.7-0.06,3.6-0.08c-0.05,18.83-0.03,37.66,0,56.49C1055.23,61.12,1055.55,63.65,1053.86,63.53z"/>
				<path fill="#92D7FF" d="M1821.53,3.57c3.8099-0.05,7.62-0.03,11.45,0.07c-0.13,15.02-0.01,30.05-0.0599,45.07      c-3.79,3.58-7.38,7.37-11.27,10.84C1821.45,40.89,1821.6801,22.23,1821.53,3.57z"/>
				<path fill="#000005" d="M1457.51,61.96c-0.17-19.46-0.0701-38.93-0.04-58.39l0.01-0.35c1.11,0.06,2.25,0.12,3.4,0.17      c-0.05,19.53,0.11,39.07-0.0699,58.6C1461.3199,64.15,1457.21,64.03,1457.51,61.96z"/>
				<path fill="#000004" d="M1111.83,123.45c-0.1-39.95-0.0199-79.91-0.0399-119.87c0.96,0,2.87,0,3.83,0      c-0.4399,5.81-0.1801,11.64-0.23,17.46c-0.01,34.11,0.01,68.21-0.01,102.32C1114.1801,123.39,1113,123.43,1111.83,123.45z"/>
				<path fill="#92D7FF" d="M1567.65,185.06c0.39-7.48,3.1899-16.41,10.71-19.5c4.6-1.61,10.59-0.6,13.4501,3.66      c3.7,5.49,4.0299,12.4,3.83,18.81c-0.22,6.66-1.28,13.73-5.33,19.22c-4.05,5.54-13.5601,5.71-17.6001,0.09      C1567.99,201.01,1567.6899,192.65,1567.65,185.06z"/>
				<path fill="#000005" d="M1547.5699,3.43c0.88,0,2.64-0.01,3.52-0.01c0.13,17.19-0.02,34.39,0.0801,51.58      c-0.03,2.65,0.1799,5.36-0.4401,7.96c-0.76,0.19-2.2999,0.57-3.0599,0.75C1547.36,43.62,1547.55,23.52,1547.5699,3.43z"/>
				<path fill="#000005" d="M1172.09,61.99c-0.21-19.5-0.1899-39.04-0.02-58.55c0.8501,0,2.5601-0.01,3.41-0.01      c0.04,19.52,0.1801,39.05-0.0599,58.56C1176.34,64.2,1171.51,64.03,1172.09,61.99z"/>
				<path fill="#000005" d="M1337.28,85.97c0.13-27.49-0.1-54.99,0.11-82.48c0.0599-1.16,0.14-2.33,0.25-3.49h2.6899      c0.17,1.18,0.3101,2.38,0.4301,3.57c0.09,29.95,0.04,59.9,0.02,89.85c-0.75,0-2.27-0.02-3.02-0.03      C1337.0699,90.98,1337.29,88.44,1337.28,85.97z"/>
				<path fill="#000004" d="M1562.59,123.43c-0.0499-40-0.1-80.01,0.03-120.02c1.1-0.02,2.23-0.05,3.38-0.08l0.02,0.29      c0.1799,39.93,0.0599,79.86,0.0499,119.79C1564.9,123.42,1563.72,123.43,1562.59,123.43z"/>
				<path fill="#000005" d="M1145.33,63.65c-5.11,0.52-3.1499-5.55-3.51-8.65c0.0901-17.19-0.0499-34.38,0.0701-51.57      c0.88,0,2.63,0,3.51,0C1145.45,23.5,1145.59,43.58,1145.33,63.65z"/>
				<path fill="#000005" d="M1160.3199,63.67c-0.7699-0.16-2.3199-0.48-3.09-0.64c-0.52-2.99-0.37-6.04-0.36-9.06      c0.08-16.86-0.0699-33.72,0.08-50.57c1.14-0.02,2.29-0.03,3.4501-0.04C1160.46,23.46,1160.61,43.57,1160.3199,63.67z"/>
				<path fill="#000004" d="M1682.74,63.44c-0.13-19.96-0.03-39.91-0.05-59.86c0.9,0,2.7001,0,3.6001,0      c-0.0701,19.14,0.0699,38.29-0.05,57.42C1686.66,63.47,1684.51,63.63,1682.74,63.44z"/>
				<path fill="#000004" d="M1036.84,91.05c-0.09-29.15-0.02-58.3-0.0299-87.45c0.8899-0.01,2.6699-0.03,3.5599-0.03      c-0.02,28.46-0.0599,56.91,0.02,85.37c-0.09,1.57,0.09,3.26-0.78,4.65C1037.77,94.11,1036.54,92.96,1036.84,91.05z"/>
				<path fill="#000004" d="M1622.72,61.09c-0.1-19.16-0.01-38.33-0.03-57.49c0.91-0.01,2.7301-0.03,3.64-0.04      c-0.26,19.97,0.05,39.94-0.1499,59.92C1624.51,63.58,1622.25,63.49,1622.72,61.09z"/>
				<path fill="#000005" d="M1757.91,3.45c0.88,0.02,2.65,0.06,3.5399,0.08c-0.12,20.03,0.14,40.06-0.1399,60.09      c-0.78-0.14-2.3601-0.44-3.15-0.59c-0.4701-2.98-0.3301-6-0.3201-9.01C1757.92,37.17,1757.79,20.31,1757.91,3.45z"/>
				<path fill="#92D7FF" d="M1407.4,161.5c2.97-1.86,6.9399-2.33,10.25-1.08c5.64,2.97,8.98,9.83,6.97,16.07      c-3.17,2.16-6.49,4.86-10.55,4.69c-4.4299,0.05-9.3199-2.59-10.2899-7.18C1402.96,169.64,1403.65,164.37,1407.4,161.5z"/>
				<path fill="#000044" d="M1716.37,3.57c-0.9,0-2.7,0.01-3.6,0.02c-3.84-0.05-7.66-0.05-11.47,0.01c-0.89,0-2.66-0.01-3.54-0.01      c-3.84-0.05-7.66-0.05-11.47-0.01c-0.9,0-2.7001,0-3.6001,0c-3.7699-0.04-7.5399-0.03-11.2899-0.02      c-0.88-0.02-2.64-0.06-3.52-0.07c-3.65-0.06-7.29-0.01-10.92,0.02l-0.63,0.01c-0.89,0.02-2.6799,0.06-3.5699,0.08      c-3.8-0.06-7.58-0.06-11.35-0.03c-0.91,0.01-2.73,0.02-3.63,0.02c-3.8301-0.05-7.64-0.05-11.4501-0.03      c-0.9099,0.01-2.73,0.03-3.64,0.04c-3.7899-0.05-7.5699-0.06-11.33-0.07c-1.04,0.09-3.1,0.27-4.13,0.36l-0.35-0.25      c-3.62-0.32-7.24-0.37-10.8199,0.17c-0.8601-0.08-2.5801-0.24-3.4401-0.32c-3.79,0.12-7.5699,0.03-11.34,0.07      c-0.92,0-2.76,0.01-3.67,0.02c-3.88-0.05-7.74-0.05-11.59,0.04L1566,3.33c-1.15,0.03-2.28,0.06-3.38,0.08      c-3.85,0.08-7.6899,0.02-11.53,0.01c-0.88,0-2.64,0.01-3.52,0.01c-3.8199,0.04-7.63,0.02-11.4299,0.06      c-0.87,0.02-2.62,0.05-3.49,0.07c-3.8-0.01-7.6-0.01-11.38,0.01c-0.92-0.01-2.76-0.03-3.6801-0.04l-0.51-0.01      c-3.6699-0.05-7.34-0.16-10.99-0.01c-0.98,0.07-2.95,0.23-3.9399,0.3L1501.84,3.6c-3.58-0.26-7.13,0.3-10.7,0.26      c-0.85-0.06-2.55-0.19-3.39-0.25l-0.3101-0.02c-3.85-0.14-7.6899,0-11.5199-0.02c-1.15-0.04-2.29-0.08-3.41-0.11      c-3.89-0.05-7.76,0.09-11.63-0.07c-1.15-0.05-2.29-0.11-3.4-0.17l-0.01,0.35c-3.84-0.05-7.6699-0.02-11.49,0.07      c-1.21-0.13-2.36-0.27-3.52-0.4l-0.01,0.34c-3.84-0.06-7.6699-0.04-11.49,0.04c-1.22-0.13-2.39-0.26-3.5599-0.4l-0.02,0.35      c-3.9-0.04-7.79-0.03-11.67,0.04c-0.09-1.21-0.1899-2.41-0.26-3.61h12.12h2.8201h12.22h2.79h12.2h2.3201H1473.1h2.4601h11.9299      h2.36h13.03h2.35h12.4401h2.83h12.23h2.5601h12.6899h2.29h12.9399h2.4701h12.0499h2.77h12.25h2.49h12.74h2.61h12.2001h2.84      h12.15h2.98h12.0699h3.27h11.9601h3.0499h11.6801h3.27h11.73h3.2899H1712.8h3.2799h11.99h3.05h11.79h3.21h11.96h3.0801h11.96      h2.72h12.3h2.78h13.1699h1.9501H1819h2.3199h11.7101h2.7h12.47h2.9601h12.47h2.63H1881.2h2.0701h22.28h3.24l1.24,0.4      c6.12,2.02,7.96,10.16,4.1,15.06c-15.9401,15.35-31.28,31.31-47.11,46.77c-0.7001,0.67-1.38,1.35-2.02,2.03      c-3.73,3.86-7.55,7.63-11.34,11.43C1241.2,688.15,628.75,1300.63,16.27,1913.0699c-1.03,0.8601-2.1,1.67-3.21,2.4701      c-2.14,0.24-4.35,0.52-6.49,0.09c-3.1-0.8199-4.98-3.64-6.57-6.1901v-1.45v-1.53V1881.52V645.94l0.64-1.61      c0.24-29.78,0.07-59.56,0.12-89.34c0.79-17.66,0.26-35.35,0.41-53.02c0.29-41.99,0.01-83.99,0.08-125.99      c-0.29-22.99,0.21-46-0.27-68.98H0V13.59l0.49-1.04C3.04,6.15,8.58,1.24,15.44,0h45.25c-0.1,1.18-0.21,2.36-0.28,3.54      c-13.47-0.08-26.95,0-40.43-0.05C14.64,3.32,8.91,5.28,5.93,9.96c-2.38,3.17-2.35,7.3-2.31,11.08      c0.25,42.34,0.22,84.69,0.26,127.03c0.06,10.99-0.2,21.99,0.31,32.98c0.05,81.63,0.38,163.27,0.41,244.9      c0.45,35.69-0.33,71.37-0.13,107.06c-0.37,41.35,0.3,82.71-0.57,124.05c-0.08,233.96-0.09,467.93-0.08,701.9      C3.93,1408.98,3.55,1459,3.66,1509.02c0,116.33,0,232.66,0,348.99c0.04,6.4299-0.15,12.86,0.19,19.29      c3.01-2.8101,5.91-5.7201,8.81-8.63c265.17-265.1901,530.36-530.36,795.53-795.54c107.18-106.83,214.06-213.97,321.1-320.94      c214.49-214.48,428.97-428.97,643.47-643.45c5.21-4.95,9.91-10.45,15.41-15.07c0.7699-0.27,2.2999-0.8,3.0699-1.07      c0.1901-0.07,0.58-0.21,0.78-0.27c-1.16-2.46,1.39-4.02,2.71-5.63c7.88-7.65,15.4301-15.65,23.4301-23.17      c0.72-0.1,2.1699-0.29,2.89-0.39c0.5499-1.1,0.4399-2.4,0.6-3.59c3.89-3.47,7.48-7.26,11.27-10.84c-0.03,1.71-0.03,3.41,0,5.12      c-278.11,277.91-556.02,556.03-834.09,833.99c-106.74,106.92-213.81,213.52-320.57,320.43      c-212.68,212.67-425.35,425.34-638.02,638.02c-12.17,11.9299-23.88,24.33-36.33,35.97c-0.41,7.25-0.22,14.51-0.26,21.78      c0.2,2.24-0.23,4.99,1.58,6.74c1.59,1.86,4.23,1.53,6.43,1.83c0.54-0.5499,1.64-1.6699,2.18-2.22      C580.88,1343.23,1148.01,776.19,1715.0699,209.09c49.13-49.02,98.0601-98.24,147.3-147.14l0.66-0.63      c1.1899-1.14,2.4-2.29,3.62-3.43l-0.03-0.47c14.7-14.35,29.01-29.09,43.6901-43.46c2.08-1.96,3.1399-5.11,1.49-7.7      c-1.01-2.27-3.6801-2.37-5.77-2.61c-7.89-0.11-15.8101-0.41-23.67,0.26c-4.97,5.5-10.09,10.9-15.78,15.66      c-0.0299-1.69-0.0299-3.38-0.01-5.06c3.9301-3.24,7.5-6.89,10.88-10.71c-3.6399-0.14-7.2699-0.15-10.88-0.02      c-1.21-0.21-2.3899-0.42-3.5499-0.64l-0.03,0.46c-3.8099-0.05-7.61-0.04-11.4-0.08l-0.14-0.01c-0.83-0.01-2.5-0.03-3.33-0.05      c-3.91-0.05-7.8099,0.04-11.7-0.06c-1.17-0.03-2.3101-0.07-3.4401-0.11v0.35c-3.83-0.1-7.64-0.12-11.45-0.07l-0.01-0.38      c-1.15,0.06-2.26,0.12-3.37,0.17c-3.87,0.16-7.74,0.11-11.59,0.05c-1.17-0.01-2.3101-0.01-3.4401,0      c-3.9,0.05-7.8,0.06-11.6801,0.02c-0.83,0-2.49-0.01-3.3199-0.01c-3.9,0.01-7.79,0.01-11.6801,0c-0.8799,0-2.6499,0-3.5299,0.01      c-3.66,0.02-7.3,0.07-10.9401,0.09l-0.52,0.01c-0.8899-0.02-2.6599-0.06-3.5399-0.08c-3.65-0.04-7.3,0.03-10.9301,0.07      l-0.53,0.01c-0.9099,0.01-2.72,0.05-3.63,0.06c-3.8199-0.05-7.6399-0.04-11.45-0.03c-0.88-0.03-2.64-0.08-3.52-0.11      c-3.64-0.07-7.27,0.03-10.89,0.11L1716.37,3.57z"/>
				<path fill="#A8DFFF" d="M1862.37,61.95c-49.24,48.9-98.17,98.12-147.3,147.14C1148.01,776.19,580.88,1343.23,13.84,1910.37      c-0.54,0.55-1.64,1.67-2.18,2.22c-2.2-0.2999-4.84,0.03-6.43-1.83c-1.81-1.75-1.38-4.5-1.58-6.74      c0.04-7.27-0.15-14.53,0.26-21.78c12.45-11.64,24.16-24.04,36.33-35.97c212.67-212.6801,425.34-425.35,638.02-638.02      c106.76-106.91,213.83-213.51,320.57-320.43c278.07-277.96,555.98-556.08,834.09-833.99c-0.01,3.21,0.01,6.41,0.11,9.62      c1.02-0.06,2.08-0.1,3.14-0.24c0.6599-4.5,0.2-9.08,0.35-13.62c4.14-3.23,7.63-7.18,11.4399-10.8      c-0.26,8.25,0.3101,16.49,0.1901,24.74c0.73-0.1,2.1899-0.3,2.9199-0.4c0.54-1.27,0.4-2.71,0.5-4.07      c-0.0699-8.17-0.08-16.34-0.0099-24.51c4.1499-3.24,7.6499-7.19,11.5-10.77c-0.02-1.72-0.03-3.44,0-5.16      c-3.88,3.59-7.4801,7.49-11.52,10.9c-0.01-8.67-0.0901-17.34,0.0499-26c3.79,0.04,7.5901,0.03,11.4,0.08l0.03-0.46      c1.16,0.22,2.34,0.43,3.5499,0.64c3.6101-0.13,7.2401-0.12,10.88,0.02c-3.38,3.82-6.95,7.47-10.88,10.71      c-0.0199,1.68-0.0199,3.37,0.01,5.06c5.6901-4.76,10.8101-10.16,15.78-15.66c7.86-0.67,15.78-0.37,23.67-0.26      c2.09,0.24,4.76,0.34,5.77,2.61c1.6499,2.59,0.59,5.74-1.49,7.7c-14.6801,14.37-28.9901,29.11-43.6901,43.46l0.03,0.47      c-1.22,1.14-2.4301,2.29-3.62,3.43L1862.37,61.95z"/>
				<path fill="#000004" d="M1025.24,61.07c1,3.17-4.4,3.38-3.48-0.01c-0.12-19.15-0.01-38.31-0.04-57.47      c0.9,0,2.6801-0.01,3.5701-0.02C1025.23,22.74,1025.34,41.91,1025.24,61.07z"/>
				<path fill="#92d7ff" d="M1485.21,136.03c0.61-5.01,0.26-10.05-0.01-15.07c0-0.11,0-0.22,0-0.33c0-2.11-0.22-4.46,1.16-6.22      c1.76-2,5.13,0.26,4.76,2.6c-0.0699,1.99-0.29,3.97-0.42,5.96c2.8601-3.07,5.52-7.76,10.3-7.66c2.6801-0.21,4.41,2.09,5.89,3.96      c3.8199-4.31,12.79-5.74,15.23,0.65c1.8,8.55,2.66,17.31,3.6,26c0.49,2.88-4.96,4.04-5.47,1.08      c-2.21-8.21-0.64-17.33-4.36-25.12c-3.2001-1.18-6.41,2.02-8.72,4c-0.4601,7.06,1.45,14.01,1.4299,21.06      c0.59,3.31-4.86,4.15-5.5699,1.08c-0.41-5.01-0.6901-10.04-1.29-15.04c-0.54-4.02,0.35-8.28-1.36-12.09      c-3.39,2.44-6.29,5.51-8.6901,8.9c-0.96,4.67-1.25,9.55-0.49,14.27c0.9401,2.57-2.3899,4.52-4.49,3.32      c-1.23-1.68-1.6699-3.65-1.77-5.69C1484.85,139.8,1485.0601,137.85,1485.21,136.03z"/>
				<path fill="#000004" d="M1716.37,3.57c-0.0599,39.89,0.02,79.77-0.05,119.66c-1.08,0.18-2.1499,0.36-3.2,0.54      c-0.8-9.9-0.17-19.84-0.36-29.76c0-30.14-0.02-60.28,0.01-90.42C1713.67,3.58,1715.47,3.57,1716.37,3.57z"/>
				<path fill="#000005" d="M1803.16,63.52c-0.1-20.04-0.03-40.07-0.04-60.11c1.13-0.01,2.27-0.01,3.4401,0      c-0.03,19.52,0.11,39.05-0.0601,58.57C1806.65,63.75,1804.1801,63.12,1803.16,63.52z"/>
				<path fill="#000004" d="M1697.8199,63.35c-0.1799-19.92-0.0499-39.84-0.0599-59.76c0.88,0,2.65,0.01,3.54,0.01      c-0.0601,19.89,0.0699,39.79-0.0701,59.69C1700.38,63.3,1698.67,63.33,1697.8199,63.35z"/>
				<path fill="#000005" d="M1370.78,62.02c0.4,2.15-3.5901,2.02-3.3301-0.05c-0.13-19.5-0.11-39,0-58.5      c0.05-1.16,0.13-2.31,0.24-3.47h2.7001c0.17,1.19,0.3099,2.38,0.4399,3.58C1370.86,23.06,1370.97,42.55,1370.78,62.02z"/>
				<path fill="#000004" d="M1097.0601,63.53c-0.28-19.97-0.0801-39.95-0.1101-59.92V3.2c1.17,0.14,2.3501,0.28,3.55,0.42      c-0.08,19.16,0.08,38.33-0.0601,57.48C1101.01,63.54,1098.7,63.42,1097.0601,63.53z"/>
				<path fill="#92D7FF" d="M1268.5,200.2c-4.61,1.23-10.6,1.03-13.73-3.1c-2.36-4.04-1.34-10.07,2.7-12.69      c1.75-1.19,3.67-2.13,5.54-3.15c3.5599,1.18,7.6799,2.49,9.49,6.12C1274.64,191.71,1273.5,198.41,1268.5,200.2z"/>
				<path fill="#000005" d="M1247.1899,3.47c0.03-0.87,0.1001-2.6,0.13-3.47h2.88c0.13,1.18,0.24,2.37,0.3301,3.56      c0.03,19.46,0.12,38.93-0.04,58.38c0.24,2.1-3.6799,2.22-3.28,0.07c-0.1799-19.5-0.01-39.02-0.0699-58.53V3.47      C1247.16,3.47,1247.17,3.47,1247.1899,3.47z"/>
				<path fill="#000004" d="M1006.78,63.34c-0.1201-19.92-0.03-39.84-0.05-59.76c0.89,0,2.67,0,3.56,0      c-0.06,19.9,0.08,39.81-0.07,59.72C1009.06,63.32,1007.91,63.33,1006.78,63.34z"/>
				<path fill="#000005" d="M1382.38,54.05c0.05-16.83-0.03-33.66,0.03-50.48l0.01-0.35c1.1899,0.15,2.35,0.29,3.58,0.43      c-0.45,19.43,0.0699,38.87-0.25,58.29c0.58,1.85-3.21,2.34-3.1,0.67C1382.14,59.79,1382.4,56.9,1382.38,54.05z"/>
				<path fill="#000004" d="M1638.28,93.41c-0.9401-3.06-0.4601-6.32-0.53-9.47c0.04-26.78-0.02-53.56,0.03-80.35      c0.9,0,2.72-0.01,3.63-0.02c-0.24,29.95,0.02,59.91-0.13,89.87C1640.26,93.46,1639.26,93.45,1638.28,93.41z"/>
				<path fill="#000005" d="M1310.65,61.97c0.3199,2.05-3.77,2.24-3.3101-0.02c-0.1899-19.47-0.09-38.97-0.0399-58.45      c0.08-1.17,0.22-2.34,0.4099-3.5h2.66c0.09,1.19,0.1901,2.38,0.28,3.58C1310.77,23.04,1310.79,42.51,1310.65,61.97z"/>
				<path fill="#000005" d="M1517.59,3.53c0.92,0.01,2.76,0.03,3.6801,0.04c-0.42,19.8,0.4,39.66-0.4,59.44      c-0.79,0.16-2.38,0.47-3.17,0.63C1517.42,43.61,1517.65,23.57,1517.59,3.53z"/>
				<path fill="#000005" d="M1772.9301,61.01c-0.13-19.19-0.05-38.39-0.02-57.58c0.88-0.01,2.65-0.01,3.5299-0.01      c0.04,19.54,0.1801,39.09-0.0599,58.62C1776.49,64.8,1772.09,63.61,1772.9301,61.01z"/>
				<path fill="#000005" d="M1417.65,160.42c-3.3101-1.25-7.28-0.78-10.25,1.08c-3.75,2.87-4.4401,8.14-3.62,12.5      c0.97,4.59,5.86,7.23,10.2899,7.18c4.0601,0.17,7.38-2.53,10.55-4.69C1426.63,170.25,1423.29,163.39,1417.65,160.42z       M1430.36,182.01c-1.98,8.38-6.37,16.98-14.41,20.94c-3.88,1.86-7.6599,4.21-11.9299,5c-2.9401,0.84-5.24-3.72-2.63-5.42      c4.6799-2.28,10.04-3.35,14.08-6.85c3.41-2.82,5.41-6.86,7.38-10.73c-4.15,1.3-8.4199,3.18-12.85,2.26      c-5.6-1.14-11.1-5.16-12.39-10.96c-1.2999-6-0.27-13.03,4.39-17.39c4.0601-4.23,10.41-5.11,15.99-4.5      c5.36,0.8,9.5601,5.02,11.92,9.69C1432.54,169.69,1431.54,176.14,1430.36,182.01z"/>
				<path fill="#000005" d="M1578.36,165.56c-7.52,3.09-10.3199,12.02-10.71,19.5c0.0399,7.59,0.34,15.95,5.0599,22.28      c4.04,5.62,13.55,5.45,17.6001-0.09c4.0499-5.49,5.11-12.56,5.33-19.22c0.2-6.41-0.13-13.32-3.83-18.81      C1588.95,164.96,1582.96,163.95,1578.36,165.56z M1596.04,162.95c5.61,6.21,7.6899,14.88,7.33,23.09      c-0.33,8.61-1.0699,17.87-6.1899,25.14c-6.77,9.99-23.76,10.42-30.6801,0.38c-5.8101-8.23-6.48-18.85-6.0699-28.6      c0.8999-9.9,5.72-21.12,15.85-24.51C1583.01,156.36,1591.16,157.56,1596.04,162.95z"/>
				<path fill="#000044" d="M1863.0601,18.62c-0.03,1.72-0.02,3.44,0,5.16c-3.8501,3.58-7.3501,7.53-11.5,10.77      c-0.04-1.68-0.03-3.35-0.02-5.03C1855.58,26.11,1859.1801,22.21,1863.0601,18.62z"/>
				<path fill="#000005" d="M1487.75,3.61c0.84,0.06,2.54,0.19,3.39,0.25c-0.08,29.05,0.08,58.11-0.08,87.16      c1.0399,2.66-3.4501,3.74-3.4901,0.96c-0.21-29.46,0.0701-58.93-0.13-88.39L1487.75,3.61z"/>
				<path fill="#000005" d="M1292.21,63.42c-0.11-19.99-0.0299-39.97-0.0399-59.95c-1.04,0.02-2.0701,0.03-3.11,0.03V3.47      c0.9199,0,1.84-0.02,2.7699-0.06c0.3301-1.14,0.7001-2.28,1.1001-3.41h2.4099c0.0801,1.16,0.16,2.32,0.24,3.48      c0.0801,19.47,0.1901,38.96-0.0399,58.43C1295.72,63.99,1293.47,63.21,1292.21,63.42z"/>
				<path fill="#000005" d="M1445.98,3.64c-0.34,19.96,0.02,39.92-0.1799,59.88c-1.16-0.32-3.4501,0.29-3.28-1.58      c-0.21-19.45-0.0601-38.91-0.0701-58.36l0.01-0.34C1443.62,3.37,1444.77,3.51,1445.98,3.64z"/>
				<path fill="#000044" d="M1836.49,45.16c3.74-4.02,7.65-7.88,11.63-11.67c-0.0599,1.77-0.12,3.54-0.16,5.3      c-3.8099,3.62-7.2999,7.57-11.4399,10.8C1836.49,48.11,1836.48,46.64,1836.49,45.16z"/>
				<path fill="#000004" d="M1126.92,63.31c-0.17-19.96-0.0901-39.91-0.04-59.87c0.88,0.02,2.65,0.05,3.53,0.07      c-0.0901,19.94,0.1,39.88-0.1,59.82C1129.47,63.33,1127.77,63.32,1126.92,63.31z"/>
				<path fill="#000004" d="M1580.76,63.61c-1.05-0.14-2.08-0.27-3.09-0.41c-0.15-19.87-0.02-39.75-0.0601-59.62      c0.91-0.01,2.75-0.02,3.67-0.02C1580.8101,23.57,1581.8101,43.63,1580.76,63.61z"/>
				<path fill="#000044" d="M1412.39,3.57c-3.91-0.03-7.8101-0.03-11.7001,0.02C1400.6,2.39,1400.5,1.2,1400.42,0h12.33      C1412.5699,1.18,1412.45,2.37,1412.39,3.57z"/>
				<path fill="#000044" d="M1386,3.65c-1.23-0.14-2.39-0.28-3.58-0.43l-0.01,0.35c-3.87-0.03-7.73-0.03-11.5801,0.01      c-0.13-1.2-0.2699-2.39-0.4399-3.58h12.2h2.8201h12.35c-0.21,1.18-0.36,2.37-0.4301,3.56C1393.54,3.52,1389.76,3.55,1386,3.65z"/>
				<path fill="#000044" d="M1367.6899,0c-0.11,1.16-0.1899,2.31-0.24,3.47c-3.9199,0.08-7.84,0.09-11.75,0.05      c-0.09-1.17-0.1799-2.35-0.26-3.52H1367.6899z"/>
				<path fill="#000044" d="M1352.74,0c-0.1899,1.18-0.3199,2.37-0.39,3.56c-3.87-0.02-7.73-0.02-11.59,0.01      c-0.12-1.19-0.26-2.39-0.4301-3.57H1352.74z"/>
				<path fill="#000044" d="M1325.65,3.5c-0.09-1.17-0.1801-2.33-0.25-3.5h12.24c-0.11,1.16-0.1901,2.33-0.25,3.49      C1333.47,3.56,1329.55,3.56,1325.65,3.5z"/>
				<path fill="#000044" d="M1322.72,0c-0.21,1.18-0.36,2.37-0.45,3.57c-3.88-0.03-7.75-0.03-11.62,0.01      c-0.09-1.2-0.1901-2.39-0.28-3.58H1322.72z"/>
				<path fill="#000044" d="M1307.71,0c-0.1899,1.16-0.33,2.33-0.4099,3.5c-3.92,0.06-7.8201,0.05-11.7201-0.02      c-0.08-1.16-0.1599-2.32-0.24-3.48H1307.71z"/>
				<path fill="#000044" d="M1277.89,0c-0.35,1.1-0.6801,2.21-1,3.31c-3.5601-0.16-7.12-0.01-10.67-0.16      c-0.5399-1.06-1.09-2.11-1.65-3.15H1277.89z"/>
				<path fill="#000044" d="M1250.53,3.56c-0.0901-1.19-0.2001-2.38-0.3301-3.56h12.4c-0.1699,1.19-0.34,2.39-0.4299,3.59      C1258.28,3.54,1254.4,3.54,1250.53,3.56z"/>
				<path fill="#000044" d="M1040.37,3.57c-0.89,0-2.67,0.02-3.5599,0.03c-3.8501-0.06-7.6901-0.07-11.52-0.03      c-0.89,0.01-2.67,0.02-3.5701,0.02c-3.81-0.05-7.62-0.05-11.43-0.01c-0.89,0-2.67,0-3.56,0c-3.82-0.04-7.63-0.04-11.44-0.01      c-0.91,0-2.72,0.02-3.63,0.02c-3.79-0.05-7.5699-0.05-11.35-0.02c-0.91-0.01-2.74-0.02-3.66-0.03l-0.63-0.01      c-3.65-0.05-7.3-0.11-10.94-0.06c-0.87,0.02-2.62,0.06-3.49,0.08c-3.77,0-7.54-0.01-11.3,0.03c-0.9,0-2.7,0-3.6,0      c-3.79-0.04-7.59-0.04-11.37-0.01c-0.91,0-2.73,0.01-3.64,0.02c-3.79-0.05-7.59-0.05-11.37-0.03c-0.95,0-2.84,0-3.78,0h-0.65      c-3.58,0.34-7.16-0.15-10.72,0.24c-0.89-0.06-2.67-0.18-3.56-0.24c-3.81-0.04-7.62,0.01-11.42-0.01      c-0.89-0.02-2.69-0.05-3.58-0.07c-3.86-0.03-7.7-0.01-11.54-0.05c-0.84,0-2.52-0.02-3.36-0.02c-3.89,0-7.78,0.05-11.66,0.08      c-0.84,0.01-2.5,0.03-3.34,0.04h-0.3c-3.84,0.03-7.67,0.03-11.5,0.03c-0.13-1.19-0.26-2.37-0.37-3.56h11.97h2.75h13.21h1.82      h12.91h2.37h12.19h2.18h12.79h2.8101h12.24h2.81h12.2h3.28h11.65h2.64h12.35h2.84h12.19h2.86h12.2h3.27h11.74h3.28h11.78h3.23      h11.8h3.23h12.25h2.49h12.64h2.5601h11.9099h3.24h11.66h3.0601h12.1599h3.04h11.9301h2.5599h12.52h2.0599h12.8501h2.86h13.14h2      h12.7899h1.8401H1218h2.34h12.28c-0.14,1.2-0.28,2.39-0.35,3.59c-3.91-0.05-7.8101-0.06-11.7001,0l-0.0099-0.32      c-1.13,0.04-2.26,0.09-3.3601,0.12c-3.87,0.14-7.72,0.01-11.5699-0.04c-1.17-0.01-2.34,0.02-3.48,0.04      c-3.89,0.09-7.78,0.07-11.66,0.04c-0.84,0-2.52,0.01-3.36,0.01c-3.89,0.05-7.77,0.01-11.65-0.01c-0.85,0-2.5599,0.01-3.41,0.01      c-1.49,0.02-2.98,0.01-4.48,0c-1.1699,0.07-2.34,0.1-3.4399-0.03c-1.25-0.02-2.5-0.03-3.75-0.05      c-1.16,0.01-2.3101,0.02-3.4501,0.04c-3.86,0.07-7.71,0.07-11.5499,0.03c-0.88,0-2.63,0-3.51,0      c-3.65,0.01-7.29,0.07-10.9301,0.08h-0.5499c-0.88-0.02-2.65-0.05-3.53-0.07c-3.59-0.05-7.16,0.51-10.72,0.13l-0.54,0.01      c-0.96,0-2.87,0-3.83,0c-3.77-0.06-7.53-0.04-11.29,0.04c-1.2-0.14-2.38-0.28-3.55-0.42v0.41      c-3.8199-0.06-7.6399-0.06-11.4399-0.09c-0.91,0.01-2.71,0.04-3.61,0.06c-3.5801,0.25-7.16-0.1-10.72,0.02l-0.27,0.2      c-1-0.08-2.99-0.22-3.99-0.3c-3.62-0.18-7.24,0.17-10.8501,0.01h-0.6899c-0.9,0.02-2.7,0.06-3.6,0.08      C1047.97,3.54,1044.17,3.53,1040.37,3.57z"/>
				<path fill="#000044" d="M841.01,3.28c-3.56,0.11-7.13,0.07-10.68-0.09c-0.37-1.07-0.74-2.13-1.09-3.19h12.82      C841.68,1.09,841.33,2.18,841.01,3.28z"/>
				<path fill="#000044" d="M827.23,0c-0.55,1.03-1.07,2.06-1.56,3.11c-3.46,0.28-6.93,0.31-10.38,0.11      c-0.37-1.07-0.73-2.15-1.08-3.22H827.23z"/>
				<path fill="#000044" d="M812.17,0c-0.51,1-1,2.01-1.46,3.02c-3.42,0.33-6.85,0.4-10.27,0.24c-0.3-0.82-0.89-2.45-1.18-3.26      H812.17z"/>
				<path fill="#000044" d="M781.45,3.56c-3.87-0.03-7.74-0.02-11.59,0.03c-0.12-1.2-0.26-2.4-0.44-3.59h12.15h3.14h11.83      c0.04,1.17,0.09,2.34,0.15,3.51l-0.27,0.01c-3.84,0.03-7.67,0.04-11.5,0.12c-1.16-0.16-2.32-0.33-3.46-0.49L781.45,3.56z"/>
				<path fill="#000044" d="M736.28,3.46c-3.8701,0.1-7.7401,0.11-11.61,0.05c-0.08-1.17-0.17-2.34-0.25-3.51h12.27h2.64h12.22h2.81      h12.34c-0.09,1.19-0.17,2.38-0.22,3.58c-3.85-0.06-7.7-0.04-11.54,0.06c-1.21-0.12-2.38-0.24-3.56-0.36l-0.01,0.3      c-3.8-0.05-7.6-0.04-11.39-0.01C738.73,3.53,737.51,3.5,736.28,3.46z"/>
				<path fill="#000044" d="M709.68,3.58c-0.08-1.2-0.19-2.39-0.29-3.58h12.35c-0.19,1.18-0.34,2.37-0.43,3.56      C717.43,3.54,713.55,3.54,709.68,3.58z"/>
				<path fill="#000044" d="M706.73,0c-0.18,1.16-0.32,2.32-0.41,3.49c-3.9,0.07-7.81,0.07-11.71,0.01      c-0.08-1.17-0.16-2.33-0.24-3.5H706.73z"/>
				<path fill="#000044" d="M679.61,3.56c-0.07-1.19-0.17-2.37-0.26-3.56h12.34c-0.21,1.19-0.36,2.38-0.45,3.57      C687.36,3.54,683.49,3.54,679.61,3.56z"/>
				<path fill="#000044" d="M676.73,0c-0.2,1.17-0.36,2.34-0.47,3.52c-3.85,0.04-7.69,0.03-11.53-0.03      c-0.11-1.16-0.24-2.33-0.4-3.49H676.73z"/>
				<path fill="#000044" d="M646.28,3.22l-0.02,0.39c-3.88-0.07-7.75-0.08-11.63-0.04c-0.08-1.19-0.17-2.38-0.26-3.57h12.25h2.86      h12.15c-0.1,1.19-0.21,2.38-0.26,3.57c-3.9-0.04-7.79-0.03-11.67,0.03l-0.02-0.41C648.54,3.2,647.41,3.21,646.28,3.22z"/>
				<path fill="#000044" d="M949.37,470.46c-165.26,165.37-330.75,330.5-496.02,495.86c-24.91,24.86-49.71,49.84-74.7,74.6199      c-0.91-0.8099-1.81-1.61-2.71-2.3899c99.89-99.96,199.84-199.85,299.75-299.78c43.19-42.83,86.08-85.96,129.12-128.94      c78.31-78.24,156.5-156.6,234.8701-234.78c0.3999-0.42,1.2-1.27,1.6-1.7c2.12-3.36,0.64-7.54-2.8101-9.26      c-0.9099-0.05-2.72-0.15-3.63-0.2c-221.16,0.08-442.29,0.03-663.4399,0c-0.93-0.01-2.77-0.03-3.7-0.04      c-1.21,1.27-2.4,2.57-3.56,3.88c0.03,0.86,0.1,2.57,0.13,3.43c0.06,221.26,0.09,442.53-0.01,663.7899      c-0.87,0-2.59-0.01-3.45-0.01c-0.08-221.21-0.08-442.4299,0-663.64c-0.02-0.84-0.05-2.51-0.06-3.35c1-4.28,4.69-7.78,9.26-7.5      c222.34,0.02,444.69-0.03,667.04,0.03c4.98-0.09,9.1,4.71,8.73,9.59c-0.03,2.13-1.15,4.01-2.04,5.88      c-0.91,0.88-1.8099,1.77-2.6899,2.67C1010.65,409.39,979.9,439.82,949.37,470.46z"/>
				<path fill="#000044" d="M365.28,1044.64c-2.51-1.21-3.63-3.85-4.54-6.3h0.01c1.16,0.01,2.32,0.04,3.49,0.0801      c0.08,0.1899,0.16,0.37,0.26,0.5399c1.49,2.76,4.66,3.5701,7.67,3.4401c0.86,0.78,1.71,1.58,2.57,2.4l0.13,0.12      C371.76,1045.77,368.18,1046.51,365.28,1044.64z"/>
				<path fill="#000044" d="M525.91,3.48c-3.78-0.02-7.55-0.09-11.3199-0.15c-1.16,0-2.3,0.02-3.44,0.04      c-3.89,0.12-7.77,0.1-11.65,0.07c-1.16-0.01-2.32,0-3.47,0c-3.87,0.03-7.74,0-11.6-0.02c-0.88,0-2.63,0-3.5,0      c-3.86,0.05-7.71,0.1-11.55-0.03c-1.15-0.04-2.29-0.08-3.42-0.13l-0.01,0.37c-3.85-0.09-7.69-0.1-11.54-0.06      c-0.9,0.01-2.7,0.01-3.6,0.02C447,3.54,443.2,3.55,439.4,3.56c-0.88-0.03-2.63-0.07-3.51-0.09c-3.64-0.05-7.27,0.01-10.91,0.06      l-0.65,0.01c-0.9,0.01-2.69,0.04-3.58,0.05c-3.81-0.05-7.62-0.05-11.42-0.01c-0.89,0-2.67,0-3.56,0      c-3.82-0.04-7.63-0.04-11.44-0.01c-0.91,0-2.73,0.02-3.64,0.02c-3.78-0.05-7.56-0.05-11.34-0.03c-0.91,0-2.74,0.02-3.65,0.03      c-3.79-0.05-7.58-0.05-11.37-0.01c-0.88,0.01-2.66,0.01-3.55,0.02c-3.79-0.06-7.58-0.06-11.37-0.03      c-0.92,0.01-2.76,0.02-3.68,0.02c-3.79-0.05-7.59-0.05-11.38-0.02c-0.91,0-2.72,0.02-3.63,0.02c-3.79-0.05-7.59-0.05-11.38-0.02      c-0.92-0.01-2.77-0.02-3.69-0.03l-0.62-0.02c-3.63-0.06-7.27-0.11-10.89-0.05c-0.87,0.02-2.62,0.06-3.49,0.09      c-3.8-0.01-7.59-0.01-11.39,0.02c-0.92-0.01-2.76-0.03-3.68-0.04L285,3.53c-3.63-0.05-7.27-0.2-10.91-0.04      c-0.98,0.09-2.95,0.26-3.94,0.35l-0.3-0.22c-3.59-0.31-7.19-0.23-10.78-0.15c-0.82,0.02-2.48,0.05-3.31,0.07h-0.32      c-3.83,0.02-7.67,0.02-11.51,0.04c-1.14-0.04-2.28-0.07-3.42-0.09c-3.81-0.06-7.62-0.07-11.43-0.02      c-0.87,0.02-2.61,0.06-3.48,0.09c-3.81,0-7.61-0.01-11.41-0.02c-0.9-0.02-2.68-0.04-3.57-0.05c-3.87-0.02-7.73-0.07-11.58-0.1      c-1.16,0-2.32,0.02-3.47,0.04c-3.91,0.09-7.82,0.01-11.72-0.02c-1.13-0.01-2.25,0-3.36,0.01c-3.86,0.06-7.71,0.02-11.57-0.02      c-1.15-0.01-2.31-0.01-3.46,0c-3.88,0.06-7.76,0.09-11.64,0.01c-1.13-0.03-2.26-0.06-3.38-0.09l-0.01,0.26      c-3.87-0.04-7.73-0.04-11.6,0c-0.1-1.2-0.25-2.39-0.44-3.58h12.24h2.48h12.87h2.19h12.8h2.25h12.79h2.25h12.93h2.35h12.14h2.66      h12.77h2.45h11.96h2.76h12.6h2.43h12.39h2.8h12.23h2.54h12.51h2.81h12.22h2.8h12.17h2.91h12.15h3.26h11.63h2.84h12.23h2.86      h12.17h3.25h11.78h3.24h12.35h2.66h11.8h3.23h11.89h2.51h12.98h2.37h12.27h2.76h12.41h2.27h12.44h3.12h12.13h2.51h12.17h2.94      h13.03h2.03h12.94h1.76h13.34h2.31h12.34h2.6801h12.37c-0.19,1.16-0.34,2.32-0.44,3.49c-3.86,0.08-7.71,0.07-11.56-0.04      c-1.17-0.11-2.34-0.21-3.5-0.32l-0.03,0.48c-3.86-0.07-7.72-0.08-11.58-0.04l-0.02-0.33c-1.14,0.05-2.28,0.1-3.4,0.14      c-3.87,0.14-7.73,0.01-11.59-0.04c-1.15,0-2.3,0.02-3.4301,0.06c-3.87,0.14-7.74,0.06-11.61,0.02      c-1.15-0.01-2.29-0.01-3.43-0.01c-3.89,0.03-7.79,0.05-11.68,0.03c-0.82,0-2.47,0-3.3,0.01c-3.9,0.04-7.8-0.12-11.69,0.05      c-0.9,0.08-2.71,0.23-3.61,0.3c-2.6201-0.21-5.25-0.34-7.88-0.34c-0.9901,0.01-1.98,0.01-2.97,0.04l-0.54,0.01      C528.56,3.5,526.79,3.49,525.91,3.48z"/>
				<path fill="#000044" d="M135.68,0c-0.08,1.16-0.16,2.31-0.23,3.47c-3.92,0.08-7.83,0.1-11.75,0.05      c-0.08-1.17-0.16-2.35-0.26-3.52H135.68z"/>
				<path fill="#000044" d="M108.76,3.58c-0.1-1.2-0.25-2.39-0.43-3.58h12.39c-0.16,1.18-0.29,2.37-0.37,3.57      C116.49,3.54,112.62,3.54,108.76,3.58z"/>
				<path fill="#000044" d="M105.64,0c-0.09,1.17-0.18,2.33-0.25,3.5c-3.92,0.06-7.83,0.06-11.74,0c-0.08-1.17-0.16-2.33-0.26-3.5      H105.64z"/>
				<path fill="#000044" d="M78.94,3.64c-1.18-0.13-2.35-0.26-3.53-0.4L75.4,3.57c-3.88-0.04-7.76-0.03-11.64,0.03      c-0.09-1.21-0.22-2.41-0.4-3.6h12.21h2.83h12.33c-0.19,1.18-0.35,2.37-0.46,3.56C86.49,3.52,82.72,3.55,78.94,3.64z"/>
			</g>
			<g>
				<path fill="none" stroke="#000005" stroke-width="0.0938" d="M1232.62,0h1.74c0.83,1.04,1.59,2.17,2.5601,3.11      c3.39,0.19,6.8099,0.21,10.22,0.36c0.02,0,0.03,0,0.0499,0c0.03-0.87,0.1001-2.6,0.13-3.47h2.88      c0.13,1.18,0.24,2.37,0.3301,3.56c0.03,19.46,0.12,38.93-0.04,58.38c0.24,2.1-3.6799,2.22-3.28,0.07      c-0.1799-19.5-0.01-39.02-0.0699-58.53c-3.83,0.26-7.67,0.34-11.47-0.21c-0.05,19.56,0.12,39.13-0.0701,58.68      c0.3201,2.1-3.77,2.2-3.3199,0.04c-0.16-19.46-0.13-38.93-0.01-58.4C1232.34,2.39,1232.48,1.2,1232.62,0z"/>
				<path fill="none" stroke="#000005" stroke-width="0.0938" d="M1262.6,0h1.97c0.5601,1.04,1.1101,2.09,1.65,3.15      c3.55,0.15,7.11,0,10.67,0.16c0.3199-1.1,0.65-2.21,1-3.31h1.75c0.54,1.02,1.08,2.06,1.62,3.1c2.59,0.26,5.1899,0.38,7.8,0.37      c0.9199,0,1.84-0.02,2.7699-0.06c0.3301-1.14,0.7001-2.28,1.1001-3.41h2.4099c0.0801,1.16,0.16,2.32,0.24,3.48      c0.0801,19.47,0.1901,38.96-0.0399,58.43c0.1799,2.08-2.0701,1.3-3.3301,1.51c-0.11-19.99-0.0299-39.97-0.0399-59.95      c-1.04,0.02-2.0701,0.03-3.11,0.03c-2.8101,0-5.6101-0.07-8.41-0.21c-0.0601,19.56,0.12,39.14-0.0801,58.69      c0.28,2.08-3.8099,2.14-3.3099-0.01c-0.16-19.48-0.03-38.97-0.05-58.45c-3.6699,0.43-7.34,0.08-11-0.23      c-0.21-0.02-0.4099-0.04-0.62-0.06c-0.0299,39.28,0.05,78.56-0.0399,117.84c0.45,2.49-1.4601,2.69-3.4301,2.46      c0-39.98-0.1-79.96,0.05-119.94C1262.26,2.39,1262.4301,1.19,1262.6,0z"/>
				<path fill="none" stroke="#000005" stroke-width="0.0938" d="M1307.71,0h2.66c0.09,1.19,0.1901,2.38,0.28,3.58      c0.12,19.46,0.14,38.93,0,58.39c0.3199,2.05-3.77,2.24-3.3101-0.02c-0.1899-19.47-0.09-38.97-0.0399-58.45      C1307.38,2.33,1307.52,1.16,1307.71,0z"/>
				<path fill="none" stroke="#000005" stroke-width="0.0938" d="M1322.72,0h2.6801c0.0699,1.17,0.16,2.33,0.25,3.5      c0.09,19.48,0.1699,38.98-0.03,58.45c0.39,2.24-3.7,2.21-3.28-0.01c-0.23-19.45-0.09-38.92-0.0699-58.37      C1322.36,2.37,1322.51,1.18,1322.72,0z"/>
				<path fill="none" stroke="#000005" stroke-width="0.0938" d="M1337.64,0h2.6899c0.17,1.18,0.3101,2.38,0.4301,3.57      c0.09,29.95,0.04,59.9,0.02,89.85c-0.75,0-2.27-0.02-3.02-0.03c-0.6901-2.41-0.47-4.95-0.48-7.42      c0.13-27.49-0.1-54.99,0.11-82.48C1337.45,2.33,1337.53,1.16,1337.64,0z"/>
				<path fill="none" stroke="#000005" stroke-width="0.0938" d="M1352.74,0h2.7c0.0801,1.17,0.17,2.35,0.26,3.52      c0.14,19.47,0.13,38.95,0.01,58.42c0.38,2.19-3.7,2.12-3.33,0c-0.15-19.46-0.08-38.92-0.03-58.38      C1352.42,2.37,1352.55,1.18,1352.74,0z"/>
				<path fill="none" stroke="#000005" stroke-width="0.0938" d="M1367.6899,0h2.7001c0.17,1.19,0.3099,2.38,0.4399,3.58      c0.03,19.48,0.14,38.97-0.0499,58.44c0.4,2.15-3.5901,2.02-3.3301-0.05c-0.13-19.5-0.11-39,0-58.5      C1367.5,2.31,1367.58,1.16,1367.6899,0z"/>
				<path fill="none" stroke="#000005" stroke-width="0.0938" d="M1397.76,0h2.66c0.08,1.2,0.1799,2.39,0.2699,3.59      c0.1101,19.44,0.1801,38.9-0.0199,58.33c0.38,2.26-3.6801,2.29-3.27,0.03c-0.25-19.46-0.0801-38.93-0.0701-58.39      C1397.4,2.37,1397.55,1.18,1397.76,0z"/>
				<path fill="none" stroke="#000005" stroke-width="0.0938" d="M1412.75,0h2.7c0.0701,1.2,0.17,2.4,0.26,3.61      c0.1901,39.96,0.01,79.92,0.0901,119.88c-0.7201-0.01-2.15-0.01-2.8601-0.02c-0.83-1.33-0.5299-3-0.6299-4.48      c0.12-38.47-0.04-76.95,0.08-115.42C1412.45,2.37,1412.5699,1.18,1412.75,0z"/>
				<path fill="none" stroke="#000004" stroke-width="0.0938" d="M1096.95,3.61V3.2c1.17,0.14,2.3501,0.28,3.55,0.42      c-0.08,19.16,0.08,38.33-0.0601,57.48c0.5701,2.44-1.74,2.32-3.3799,2.43C1096.78,43.56,1096.98,23.58,1096.95,3.61z"/>
				<path fill="none" stroke="#000005" stroke-width="0.0938" d="M1156.95,3.4c1.14-0.02,2.29-0.03,3.4501-0.04      c0.0599,20.1,0.21,40.21-0.0801,60.31c-0.7699-0.16-2.3199-0.48-3.09-0.64c-0.52-2.99-0.37-6.04-0.36-9.06      C1156.95,37.11,1156.8,20.25,1156.95,3.4z"/>
				<path fill="none" stroke="#000005" stroke-width="0.0938" d="M1202.15,3.39c1.14-0.02,2.3099-0.05,3.48-0.04      c-0.12,19.52,0.13,39.06-0.11,58.57c0.41,2.22-3.78,2.15-3.3101,0.04C1202.03,42.44,1202.1899,22.91,1202.15,3.39z"/>
				<path fill="none" stroke="#000005" stroke-width="0.0938" d="M1217.2,3.39c1.1001-0.03,2.2301-0.08,3.3601-0.12l0.0099,0.32      c0.12,18.11-0.0499,36.24,0.0901,54.36c-0.0601,1.78,0.0699,3.62-0.51,5.33c-0.74,0.03-2.22,0.08-2.9601,0.11      C1217.17,43.39,1217.17,23.39,1217.2,3.39z"/>
				<path fill="none" stroke="#000005" stroke-width="0.0938" d="M1382.41,3.57l0.01-0.35c1.1899,0.15,2.35,0.29,3.58,0.43      c-0.45,19.43,0.0699,38.87-0.25,58.29c0.58,1.85-3.21,2.34-3.1,0.67c-0.51-2.82-0.25-5.71-0.27-8.56      C1382.4301,37.22,1382.35,20.39,1382.41,3.57z"/>
				<path fill="none" stroke="#000005" stroke-width="0.0938" d="M1427.38,3.57l0.02-0.35c1.1699,0.14,2.34,0.27,3.5599,0.4      c-0.36,19.46,0.0801,38.93-0.21,58.39c0.45,2.15-3.62,2.02-3.3101-0.03C1427.26,42.52,1427.38,23.04,1427.38,3.57z"/>
				<path fill="none" stroke="#000005" stroke-width="0.0938" d="M1442.45,3.58l0.01-0.34c1.16,0.13,2.3101,0.27,3.52,0.4      c-0.34,19.96,0.02,39.92-0.1799,59.88c-1.16-0.32-3.4501,0.29-3.28-1.58C1442.3101,42.49,1442.46,23.03,1442.45,3.58z"/>
				<path fill="none" stroke="#000005" stroke-width="0.0938" d="M1457.47,3.57l0.01-0.35c1.11,0.06,2.25,0.12,3.4,0.17      c-0.05,19.53,0.11,39.07-0.0699,58.6c0.5099,2.16-3.6001,2.04-3.3-0.03C1457.34,42.5,1457.4399,23.03,1457.47,3.57z"/>
				<path fill="none" stroke="#000004" stroke-width="0.0938" d="M1562.62,3.41c1.1-0.02,2.23-0.05,3.38-0.08l0.02,0.29      c0.1799,39.93,0.0599,79.86,0.0499,119.79c-1.1699,0.01-2.35,0.02-3.48,0.02C1562.54,83.43,1562.49,43.42,1562.62,3.41z"/>
				<path fill="none" stroke="#000005" stroke-width="0.0938" d="M1818.15,3.36c1.11-0.05,2.22-0.11,3.37-0.17l0.01,0.38      c0.15,18.66-0.0801,37.32,0.12,55.98c-0.16,1.19-0.05,2.49-0.6,3.59c-0.7201,0.1-2.17,0.29-2.89,0.39      C1818.14,43.47,1818.16,23.41,1818.15,3.36z"/>
				<path fill="none" stroke="#000004" stroke-width="0.0938" d="M1832.98,3.64V3.29c1.13,0.04,2.27,0.08,3.4401,0.11      c0.1499,13.92,0.01,27.84,0.0699,41.76c-0.01,1.48,0,2.95,0.03,4.43c-0.15,4.54,0.3099,9.12-0.35,13.62      c-1.0601,0.14-2.12,0.18-3.14,0.24c-0.1-3.21-0.12-6.41-0.11-9.62c-0.03-1.71-0.03-3.41,0-5.12      C1832.97,33.69,1832.85,18.66,1832.98,3.64z"/>
				<path fill="none" stroke="#000004" stroke-width="0.0938" d="M991.66,3.59c0.91,0,2.72-0.02,3.63-0.02      c-0.23,19.95,0.01,39.91-0.12,59.87c-1.71,0.13-3.96,0.06-3.49-2.37C991.59,41.91,991.67,22.75,991.66,3.59z"/>
				<path fill="none" stroke="#000004" stroke-width="0.0938" d="M1006.73,3.58c0.89,0,2.67,0,3.56,0      c-0.06,19.9,0.08,39.81-0.07,59.72c-1.16,0.02-2.31,0.03-3.4399,0.04C1006.66,43.42,1006.75,23.5,1006.73,3.58z"/>
				<path fill="none" stroke="#000004" stroke-width="0.0938" d="M1021.72,3.59c0.9,0,2.6801-0.01,3.5701-0.02      c-0.0601,19.17,0.0499,38.34-0.05,57.5c1,3.17-4.4,3.38-3.48-0.01C1021.64,41.91,1021.75,22.75,1021.72,3.59z"/>
				<path fill="none" stroke="#000004" stroke-width="0.0938" d="M1036.8101,3.6c0.8899-0.01,2.6699-0.03,3.5599-0.03      c-0.02,28.46-0.0599,56.91,0.02,85.37c-0.09,1.57,0.09,3.26-0.78,4.65c-1.84,0.52-3.0699-0.63-2.77-2.54      C1036.75,61.9,1036.8199,32.75,1036.8101,3.6z"/>
				<path fill="none" stroke="#000004" stroke-width="0.0938" d="M1051.78,3.59c0.9-0.02,2.7-0.06,3.6-0.08      c-0.05,18.83-0.03,37.66,0,56.49c-0.15,1.12,0.17,3.65-1.52,3.53c-2.11,0.61-2.04-2.18-2.09-3.54      C1051.78,41.19,1051.78,22.39,1051.78,3.59z"/>
				<path fill="none" stroke="#000004" stroke-width="0.0938" d="M1066.92,3.5c1,0.08,2.99,0.22,3.99,0.3      c-0.89,4-0.4301,8.12-0.49,12.18c-0.0701,15.79,0.12,31.59-0.1001,47.38c-0.85-0.02-2.5499-0.06-3.3999-0.08      C1066.84,43.35,1066.83,23.43,1066.92,3.5z"/>
				<path fill="none" stroke="#000004" stroke-width="0.0938" d="M1081.9,3.58c0.9-0.02,2.7-0.05,3.61-0.06      c-0.25,20.05,0.13,40.11-0.2,60.16c-0.78-0.17-2.3301-0.52-3.1001-0.69c-0.5699-2.62-0.4099-5.31-0.3999-7.97      C1081.91,37.87,1081.73,20.72,1081.9,3.58z"/>
				<path fill="none" stroke="#000004" stroke-width="0.0938" d="M1111.79,3.58c0.96,0,2.87,0,3.83,0      c-0.4399,5.81-0.1801,11.64-0.23,17.46c-0.01,34.11,0.01,68.21-0.01,102.32c-1.2,0.03-2.38,0.07-3.55,0.09      C1111.73,83.5,1111.8101,43.54,1111.79,3.58z"/>
				<path fill="none" stroke="#000004" stroke-width="0.0938" d="M1126.88,3.44c0.88,0.02,2.65,0.05,3.53,0.07      c-0.0901,19.94,0.1,39.88-0.1,59.82c-0.8401,0-2.54-0.01-3.39-0.02C1126.75,43.35,1126.83,23.4,1126.88,3.44z"/>
				<path fill="none" stroke="#000005" stroke-width="0.0938" d="M1141.89,3.43c0.88,0,2.63,0,3.51,0      c0.0499,20.07,0.1899,40.15-0.0701,60.22c-5.11,0.52-3.1499-5.55-3.51-8.65C1141.91,37.81,1141.77,20.62,1141.89,3.43z"/>
				<path fill="none" stroke="#000005" stroke-width="0.0938" d="M1172.0699,3.44c0.8501,0,2.5601-0.01,3.41-0.01      c0.04,19.52,0.1801,39.05-0.0599,58.56c0.9199,2.21-3.91,2.04-3.3301,0C1171.88,42.49,1171.9,22.95,1172.0699,3.44z"/>
				<path fill="none" stroke="#000005" stroke-width="0.0938" d="M1187.13,3.44c0.84,0,2.52-0.01,3.36-0.01      c-0.04,29.94,0.33,59.91-0.1799,89.83c-0.8,0.05-2.4,0.14-3.2001,0.18C1187.15,63.44,1187.11,33.44,1187.13,3.44z"/>
				<path fill="none" stroke="#000005" stroke-width="0.0938" d="M1472.51,3.46c1.12,0.03,2.26,0.07,3.41,0.11      c0.25,15.47-0.0801,30.94-0.02,46.41c-0.01,4.38,0.53,8.78-0.14,13.13c-1.66,1.25-3.6901-0.07-3.26-2.05      C1472.48,41.86,1472.49,22.66,1472.51,3.46z"/>
				<path fill="none" stroke="#000005" stroke-width="0.0938" d="M1487.4399,3.59l0.3101,0.02c0.84,0.06,2.54,0.19,3.39,0.25      c-0.08,29.05,0.08,58.11-0.08,87.16c1.0399,2.66-3.4501,3.74-3.4901,0.96C1487.36,62.52,1487.64,33.05,1487.4399,3.59z"/>
				<path fill="none" stroke="#000005" stroke-width="0.0938" d="M1502.15,3.81c0.99-0.07,2.96-0.23,3.9399-0.3      c0.05,19.16,0.11,38.33-0.01,57.49c0.27,2.12-1.3999,3.21-3.2699,2.27C1501.96,43.48,1503.3,23.58,1502.15,3.81z"/>
				<path fill="none" stroke="#000005" stroke-width="0.0938" d="M1517.59,3.53c0.92,0.01,2.76,0.03,3.6801,0.04      c-0.42,19.8,0.4,39.66-0.4,59.44c-0.79,0.16-2.38,0.47-3.17,0.63C1517.42,43.61,1517.65,23.57,1517.59,3.53z"/>
				<path fill="none" stroke="#000004" stroke-width="0.0938" d="M1532.65,3.56c0.87-0.02,2.62-0.05,3.49-0.07      c0.1,19.92,0.08,39.84,0.01,59.75c-0.86,0.04-2.5601,0.11-3.42,0.15C1532.53,43.45,1532.6899,23.5,1532.65,3.56z"/>
				<path fill="none" stroke="#000005" stroke-width="0.0938" d="M1547.5699,3.43c0.88,0,2.64-0.01,3.52-0.01      c0.13,17.19-0.02,34.39,0.0801,51.58c-0.03,2.65,0.1799,5.36-0.4401,7.96c-0.76,0.19-2.2999,0.57-3.0599,0.75      C1547.36,43.62,1547.55,23.52,1547.5699,3.43z"/>
				<path fill="none" stroke="#000004" stroke-width="0.0938" d="M1577.61,3.58c0.91-0.01,2.75-0.02,3.67-0.02      c-0.47,20.01,0.53,40.07-0.52,60.05c-1.05-0.14-2.08-0.27-3.09-0.41C1577.52,43.33,1577.65,23.45,1577.61,3.58z"/>
				<path fill="none" stroke="#000004" stroke-width="0.0938" d="M1592.62,3.49c0.86,0.08,2.58,0.24,3.4401,0.32      c0.21,19.83,0.09,39.67,0.0599,59.5c-0.86,0-2.5699,0-3.4301,0C1592.52,43.37,1592.65,23.43,1592.62,3.49z"/>
				<path fill="none" stroke="#000004" stroke-width="0.0938" d="M1607.23,3.89c1.03-0.09,3.09-0.27,4.13-0.36      c-0.24,18.83-0.04,37.66-0.1,56.49c0.02,1.25-0.23,2.44-0.73,3.56c-0.9401-0.32-3.2101,0.25-2.74-1.46      c-0.27-15.05-0.02-30.11-0.11-45.17C1607.58,12.6,1608.1,8.19,1607.23,3.89z"/>
				<path fill="none" stroke="#000004" stroke-width="0.0938" d="M1622.6899,3.6c0.91-0.01,2.7301-0.03,3.64-0.04      c-0.26,19.97,0.05,39.94-0.1499,59.92c-1.67,0.1-3.9301,0.01-3.4601-2.39C1622.62,41.93,1622.71,22.76,1622.6899,3.6z"/>
				<path fill="none" stroke="#000004" stroke-width="0.0938" d="M1637.78,3.59c0.9,0,2.72-0.01,3.63-0.02      c-0.24,29.95,0.02,59.91-0.13,89.87c-1.02,0.02-2.02,0.01-3-0.03c-0.9401-3.06-0.4601-6.32-0.53-9.47      C1637.79,57.16,1637.73,30.38,1637.78,3.59z"/>
				<path fill="none" stroke="#000004" stroke-width="0.0938" d="M1652.76,3.6c0.89-0.02,2.6799-0.06,3.5699-0.08      c-0.08,19.98,0.0601,39.96-0.0699,59.94c-1.73,0.1-3.88,0.08-3.46-2.34C1652.66,41.95,1652.78,22.77,1652.76,3.6z"/>
				<path fill="none" stroke="#000004" stroke-width="0.0938" d="M1667.88,3.49c0.88,0.01,2.64,0.05,3.52,0.07      c-0.09,19.93,0.11,39.87-0.1,59.8c-0.8601-0.02-2.5701-0.07-3.4301-0.09C1667.8199,43.34,1667.8,23.41,1667.88,3.49z"/>
				<path fill="none" stroke="#000004" stroke-width="0.0938" d="M1682.6899,3.58c0.9,0,2.7001,0,3.6001,0      c-0.0701,19.14,0.0699,38.29-0.05,57.42c0.42,2.47-1.73,2.63-3.5,2.44C1682.61,43.48,1682.71,23.53,1682.6899,3.58z"/>
				<path fill="none" stroke="#000004" stroke-width="0.0938" d="M1697.76,3.59c0.88,0,2.65,0.01,3.54,0.01      c-0.0601,19.89,0.0699,39.79-0.0701,59.69c-0.85,0.01-2.5599,0.04-3.41,0.06C1697.64,43.43,1697.77,23.51,1697.76,3.59z"/>
				<path fill="none" stroke="#000004" stroke-width="0.0938" d="M1712.77,3.59c0.9-0.01,2.7-0.02,3.6-0.02      c-0.0599,39.89,0.02,79.77-0.05,119.66c-1.08,0.18-2.1499,0.36-3.2,0.54c-0.8-9.9-0.17-19.84-0.36-29.76      C1712.76,63.87,1712.74,33.73,1712.77,3.59z"/>
				<path fill="none" stroke="#000004" stroke-width="0.0938" d="M1727.85,3.45c0.88,0.03,2.64,0.08,3.52,0.11      c-0.1,20.02,0.14,40.04-0.12,60.06c-0.8-0.15-2.39-0.44-3.1899-0.59c-0.4701-3.33-0.26-6.7-0.26-10.05      C1727.85,36.47,1727.73,19.96,1727.85,3.45z"/>
				<path fill="none" stroke="#000005" stroke-width="0.0938" d="M1742.8199,3.59c0.91-0.01,2.7201-0.05,3.63-0.06      c-0.22,19.9,0.3,39.83-0.25,59.71c-0.58,0.07-1.73,0.19-2.2999,0.25c-2.2001-2.66-0.67-7.1-1.09-10.47      C1742.83,36.55,1742.8,20.07,1742.8199,3.59z"/>
				<path fill="none" stroke="#000005" stroke-width="0.0938" d="M1757.91,3.45c0.88,0.02,2.65,0.06,3.5399,0.08      c-0.12,20.03,0.14,40.06-0.1399,60.09c-0.78-0.14-2.3601-0.44-3.15-0.59c-0.4701-2.98-0.3301-6-0.3201-9.01      C1757.92,37.17,1757.79,20.31,1757.91,3.45z"/>
				<path fill="none" stroke="#000005" stroke-width="0.0938" d="M1772.91,3.43c0.88-0.01,2.65-0.01,3.5299-0.01      c0.04,19.54,0.1801,39.09-0.0599,58.62c0.11,2.76-4.29,1.57-3.45-1.03C1772.8,41.82,1772.88,22.62,1772.91,3.43z"/>
				<path fill="none" stroke="#000005" stroke-width="0.0938" d="M1788.12,3.42c0.83,0,2.49,0.01,3.3199,0.01      c-0.0199,29.72,0.3601,59.46-0.2,89.17c-0.77,0.27-2.3,0.8-3.0699,1.07c-0.12-1.55-0.1901-3.09-0.1901-4.64      C1788.33,60.5,1787.89,31.95,1788.12,3.42z"/>
				<path fill="none" stroke="#000005" stroke-width="0.0938" d="M1803.12,3.41c1.13-0.01,2.27-0.01,3.4401,0      c-0.03,19.52,0.11,39.05-0.0601,58.57c0.15,1.77-2.3199,1.14-3.34,1.54C1803.0601,43.48,1803.13,23.45,1803.12,3.41z"/>
				<path fill="none" stroke="#000005" stroke-width="0.0938" d="M1848.12,3.46c0.83,0.02,2.5,0.04,3.33,0.05l0.14,0.01      c-0.14,8.66-0.0599,17.33-0.0499,26c-0.01,1.68-0.02,3.35,0.02,5.03c-0.0701,8.17-0.0601,16.34,0.0099,24.51      c-0.1,1.36,0.04,2.8-0.5,4.07c-0.73,0.1-2.1899,0.3-2.9199,0.4c0.12-8.25-0.4501-16.49-0.1901-24.74      c0.04-1.76,0.1001-3.53,0.16-5.3C1847.75,23.49,1848.26,13.48,1848.12,3.46z"/>
				<path fill="none" stroke="#000005" stroke-width="0.0938" d="M1402,158.86c4.0601-4.23,10.41-5.11,15.99-4.5      c5.36,0.8,9.5601,5.02,11.92,9.69c2.63,5.64,1.63,12.09,0.45,17.96c-1.98,8.38-6.37,16.98-14.41,20.94      c-3.88,1.86-7.6599,4.21-11.9299,5c-2.9401,0.84-5.24-3.72-2.63-5.42c4.6799-2.28,10.04-3.35,14.08-6.85      c3.41-2.82,5.41-6.86,7.38-10.73c-4.15,1.3-8.4199,3.18-12.85,2.26c-5.6-1.14-11.1-5.16-12.39-10.96      C1396.3101,170.25,1397.34,163.22,1402,158.86z"/>
				<path fill="none" stroke="#000005" stroke-width="0.0938" d="M1407.4,161.5c-3.75,2.87-4.4401,8.14-3.62,12.5      c0.97,4.59,5.86,7.23,10.2899,7.18c4.0601,0.17,7.38-2.53,10.55-4.69c2.01-6.24-1.33-13.1-6.97-16.07      C1414.34,159.17,1410.37,159.64,1407.4,161.5z"/>
				<path fill="none" stroke="#000005" stroke-width="0.0938" d="M1097.51,161.23c-3.33-0.2-2.98-6.18,0.3099-5.93      c9.7101-0.26,19.42,0.49,29.15,0.2c1.9301,0.31,4.78-0.61,6,1.42c0.13,3.47-2.87,5.77-4.87,8.2      c-6.1799,6.85-9.41,15.62-13.25,23.85c-2.58,5.54-3.77,11.7-7,16.93c-1.76,2.93-6.66,0.21-5.46-2.85      c1.48-5.34,4.02-10.31,5.95-15.49c3.41-9.16,7.5901-18.18,14.05-25.63C1114.1,161.77,1105.78,161.89,1097.51,161.23z"/>
				<path fill="none" stroke="#000005" stroke-width="0.0938" d="M1249.21,172.13c-2.2799-7.5,3.41-15.72,10.89-17.2      c4.73-0.9,10.3201-0.6,14.0701,2.8c3.7699,3.49,4.0399,9.15,3.25,13.91c-0.6001,3.12-3.65,4.71-6.03,6.37      c3.26,1.81,6.79,3.99,7.97,7.77c1.67,5.26,1.6,11.85-2.5,16c-4.66,4.65-11.75,5.53-17.98,4.51      c-4.3199-0.91-8.95-3.11-10.63-7.48c-2.64-6.99-0.62-15.92,6.09-19.87C1252.11,177.14,1249.85,175.04,1249.21,172.13z"/>
				<path fill="none" stroke="#000005" stroke-width="0.0938" d="M1259.21,161.2c-2.84,1.37-4.1599,4.76-3.85,7.78      c0.1,3.81,4.24,5.95,7.58,6.37c3.1201-0.83,6.9901-1.98,8.1801-5.37c0.76-3.2,0.04-7.55-3.1899-9.1      C1265.08,160.28,1261.95,160.12,1259.21,161.2z"/>
				<path fill="none" stroke="#000005" stroke-width="0.0938" d="M1257.47,184.41c-4.0399,2.62-5.0599,8.65-2.7,12.69      c3.13,4.13,9.12,4.33,13.73,3.1c5-1.79,6.14-8.49,4-12.82c-1.8101-3.63-5.9301-4.94-9.49-6.12      C1261.14,182.28,1259.22,183.22,1257.47,184.41z"/>
				<path fill="none" stroke="#000005" stroke-width="0.0938" d="M1536.01,162.08c2.67-2.33,5.65-5.45,9.59-4.6      c2.61,1.96,0.37,5.73,0.84,8.47c1.3501,14.73-3.2899,29.34-0.9199,44.05c2.4199,0.39,5.97-0.79,7.33,1.95      c1.4601,2.02-0.4,5.38-2.86,5.31c-6.35,0.06-12.71,0.2-19.04-0.07c-3.0299-0.3-3.5299-4.93-0.9099-6.2      c2.4399-1.16,5.2999-0.64,7.9399-0.79c-1.8099-13.53,0.8301-27.02,1.1801-40.55c-2.0801,1.33-3.98,2.97-6.26,3.92      c-2.53,0.57-4.84-2.18-4.22-4.59C1530.39,166,1533.58,164.4,1536.01,162.08z"/>
				<path fill="none" stroke="#000005" stroke-width="0.0938" d="M1576.28,158.45c6.73-2.09,14.88-0.89,19.76,4.5      c5.61,6.21,7.6899,14.88,7.33,23.09c-0.33,8.61-1.0699,17.87-6.1899,25.14c-6.77,9.99-23.76,10.42-30.6801,0.38      c-5.8101-8.23-6.48-18.85-6.0699-28.6C1561.33,173.06,1566.15,161.84,1576.28,158.45z"/>
				<path fill="none" stroke="#000005" stroke-width="0.0938" d="M1578.36,165.56c-7.52,3.09-10.3199,12.02-10.71,19.5      c0.0399,7.59,0.34,15.95,5.0599,22.28c4.04,5.62,13.55,5.45,17.6001-0.09c4.0499-5.49,5.11-12.56,5.33-19.22      c0.2-6.41-0.13-13.32-3.83-18.81C1588.95,164.96,1582.96,163.95,1578.36,165.56z"/>
			</g>
		</g>
	</g>
	<path fill="#000005" stroke="#000005" stroke-width="0.0938" d="M60.69,0h2.67c0.18,1.19,0.31,2.39,0.4,3.6   c0.11,39.87,0.01,79.75,0.04,119.62c-0.8,0.14-2.41,0.43-3.21,0.57c-0.52-6.6-0.18-13.22-0.27-19.83   c0.06-33.47-0.12-66.95,0.09-100.42C60.48,2.36,60.59,1.18,60.69,0z"/>
	<path fill="#000005" stroke="#000005" stroke-width="0.0938" d="M90.73,0h2.66c0.1,1.17,0.18,2.33,0.26,3.5   c0.2,17.82-0.04,35.64,0.11,53.46c-0.02,1.93,0.08,3.88-0.28,5.78c-0.38,1.51-3.54,0.99-3.15-0.77   c-0.21-19.46-0.07-38.94-0.06-58.41C90.38,2.37,90.54,1.18,90.73,0z"/>
	<path fill="#000005" stroke="#000005" stroke-width="0.0938" d="M105.64,0h2.69c0.18,1.19,0.33,2.38,0.43,3.58   c0.04,19.45,0.13,38.91-0.04,58.35c0.37,2.14-3.65,2.21-3.33,0.04c-0.14-19.48-0.12-38.98,0-58.47   C105.46,2.33,105.55,1.17,105.64,0z"/>
	<path fill="#000005" stroke="#000005" stroke-width="0.0938" d="M120.72,0h2.72c0.1,1.17,0.18,2.35,0.26,3.52   c0.14,19.48,0.13,38.97,0.01,58.44c0.4,2.13-3.63,2.13-3.32,0.03c-0.17-19.47-0.08-38.95-0.04-58.42   C120.43,2.37,120.56,1.18,120.72,0z"/>
	<path fill="#000005" stroke="#000005" stroke-width="0.0938" d="M135.68,0h2.71c0.19,1.19,0.34,2.38,0.44,3.58   c0.08,29.95,0.05,59.91,0.02,89.87c-0.75-0.02-2.24-0.05-2.99-0.07c-0.49-1.39-0.5-2.88-0.52-4.34   c0.14-28.52-0.08-57.05,0.11-85.57C135.52,2.31,135.6,1.16,135.68,0z"/>
	<path fill="#000005" stroke="#000005" stroke-width="0.0938" d="M631.71,0h2.66c0.09,1.19,0.18,2.38,0.26,3.57   c0.13,19.46,0.14,38.93,0,58.38c0.35,2.12-3.67,2.16-3.33,0.05c-0.16-19.5-0.08-39.01-0.03-58.51C631.37,2.32,631.52,1.16,631.71,0   z"/>
	<path fill="#000005" stroke="#000005" stroke-width="0.0938" d="M661.63,0h2.7c0.16,1.16,0.29,2.33,0.4,3.49   c0.1,40.01,0.02,80.03,0.03,120.04c-0.73-0.03-2.19-0.08-2.92-0.11c-0.73-1.34-0.51-2.93-0.59-4.39   c0.15-38.48-0.09-76.97,0.12-115.46C661.42,2.38,661.53,1.19,661.63,0z"/>
	<path fill="#000005" stroke="#000005" stroke-width="0.0938" d="M676.73,0h2.62c0.09,1.19,0.19,2.37,0.26,3.56   c0.11,19.46,0.16,38.92-0.01,58.37c0.19,1.92-2.24,1.24-3.35,1.52c-0.04-19.97-0.07-39.95,0.01-59.93   C676.37,2.34,676.53,1.17,676.73,0z"/>
	<path fill="#000005" stroke="#000005" stroke-width="0.0938" d="M691.69,0h2.68c0.08,1.17,0.16,2.33,0.24,3.5   c0.12,19.48,0.14,38.98,0,58.46c0.23,1.88-2.3,1.16-3.38,1.48c-0.05-19.96-0.07-39.91,0.01-59.87C691.33,2.38,691.48,1.19,691.69,0   z"/>
	<path fill="#000005" stroke="#000005" stroke-width="0.0938" d="M706.73,0h2.66c0.1,1.19,0.21,2.38,0.29,3.58   c0.17,19.89,0.07,39.78,0.05,59.67c-1.15,0.01-2.29,0.01-3.42,0.02c-0.03-19.93-0.07-39.86,0.01-59.78   C706.41,2.32,706.55,1.16,706.73,0z"/>
	<path fill="#000005" stroke="#000005" stroke-width="0.0938" d="M721.74,0h2.68c0.08,1.17,0.17,2.34,0.25,3.51   c0.12,19.49,0.15,38.99-0.01,58.47c0.44,1.77-2.66,2.16-3.15,0.81c-0.31-1.58-0.27-3.2-0.28-4.79c0.12-18.15-0.04-36.3,0.08-54.44   C721.4,2.37,721.55,1.18,721.74,0z"/>
	<path fill="#000005" stroke="#000005" stroke-width="0.0938" d="M766.7,0h2.72c0.18,1.19,0.32,2.39,0.44,3.59   c0.04,19.48,0.14,38.98-0.05,58.46c0.41,2.13-3.62,1.96-3.32-0.11c-0.14-19.45-0.12-38.91-0.01-58.36   C766.53,2.38,766.61,1.19,766.7,0z"/>
	<path fill="#000038" stroke="#000038" stroke-width="0.0938" d="M796.54,0h2.72c0.29,0.81,0.88,2.44,1.18,3.26   c3.42,0.16,6.85,0.09,10.27-0.24c0.46-1.01,0.95-2.02,1.46-3.02h2.04c0.35,1.07,0.71,2.15,1.08,3.22c3.45,0.2,6.92,0.17,10.38-0.11   c0.49-1.05,1.01-2.08,1.56-3.11h2.01c0.35,1.06,0.72,2.12,1.09,3.19c3.55,0.16,7.12,0.2,10.68,0.09c0.32-1.1,0.67-2.19,1.05-3.28   h2.47c0.11,1.19,0.24,2.37,0.37,3.56c-1.15-0.04-2.29-0.07-3.4301-0.09c-3.87-0.06-7.75-0.02-11.62-0.1   c-1.19-0.01-2.35-0.03-3.52-0.02c-3.84,0.06-7.68,0.14-11.52,0.03c-1.18-0.02-2.32-0.04-3.48-0.04c-3.8,0.05-7.6,0.11-11.39,0.13   c-0.81,0.01-2.43,0.03-3.25,0.04C796.63,2.34,796.58,1.17,796.54,0z"/>
	<path fill="#000005" stroke="#000005" stroke-width="0.0938" d="M75.41,3.24c1.18,0.14,2.35,0.27,3.53,0.4   C78.6,23.07,79,42.52,78.75,61.96c0.46,2.12-3.6,2.13-3.29,0.04c-0.17-19.47-0.04-38.95-0.06-58.43L75.41,3.24z"/>
	<path fill="#000005" stroke="#000005" stroke-width="0.0938" d="M150.44,3.32c1.12,0.03,2.25,0.06,3.38,0.09   c0.03,20,0.02,40.01,0.01,60.01c-0.71-0.05-2.13-0.15-2.83-0.2c-0.93-1.16-0.46-2.85-0.65-4.24c0.12-18.46-0.03-36.93,0.08-55.4   L150.44,3.32z"/>
	<path fill="#000004" stroke="#000004" stroke-width="0.0938" d="M195.57,3.43c1.15-0.02,2.31-0.04,3.47-0.04   c0,19.96,0.15,39.92-0.08,59.87c-0.83,0.04-2.5,0.1-3.33,0.13C195.4,43.41,195.51,23.42,195.57,3.43z"/>
	<path fill="#000004" stroke="#000004" stroke-width="0.0938" d="M465.96,3.26c1.13,0.05,2.27,0.09,3.42,0.13   c0.1,19.99,0.16,39.99-0.03,59.99c-0.85-0.03-2.53-0.08-3.37-0.11c-0.15-19.88-0.1-39.76-0.03-59.64L465.96,3.26z"/>
	<path fill="#000005" stroke="#000005" stroke-width="0.0938" d="M511.15,3.37c1.14-0.02,2.28-0.04,3.44-0.04   c-0.05,38.91-0.02,77.82-0.01,116.73c-0.03,1.12-0.16,2.24-0.37,3.35c-0.77,0.02-2.32,0.06-3.09,0.08   C511.17,83.45,511.12,43.41,511.15,3.37z"/>
	<path fill="#000005" stroke="#000005" stroke-width="0.0938" d="M586.16,3.4c1.13-0.04,2.28-0.06,3.4301-0.06   c-0.01,28.55-0.05,57.1,0.02,85.65c-0.04,1.45-0.09,2.91-0.38,4.34c-0.77,0.03-2.3,0.1-3.07,0.13   C586.15,63.44,586.15,33.42,586.16,3.4z"/>
	<path fill="#000005" stroke="#000005" stroke-width="0.0938" d="M601.18,3.38c1.12-0.04,2.26-0.09,3.4-0.14l0.02,0.33   c0.04,19.45,0.12,38.92-0.03,58.37c0.3,2.13-3.78,2.18-3.33,0.02C601.06,42.44,601.21,22.91,601.18,3.38z"/>
	<path fill="#000005" stroke="#000005" stroke-width="0.0938" d="M616.21,3.13c1.16,0.11,2.33,0.21,3.5,0.32   c-0.23,19.5,0.15,39.02-0.18,58.51c0.18,2.05-2.07,1.22-3.3,1.43c-0.05-19.93,0.03-39.85-0.05-59.78L616.21,3.13z"/>
	<path fill="#000005" stroke="#000005" stroke-width="0.0938" d="M646.28,3.22c1.1299-0.01,2.2599-0.02,3.4-0.03l0.02,0.41   c0,19.45,0.1,38.91-0.05,58.36c0.38,2.11-3.69,2.14-3.3,0.01c-0.18-19.45,0-38.91-0.09-58.36L646.28,3.22z"/>
	<path fill="#000005" stroke="#000005" stroke-width="0.0938" d="M736.28,3.46c1.23,0.04,2.45,0.07,3.7,0.11   c-0.34,29.95-0.02,59.92-0.16,89.87c-0.75-0.01-2.24-0.05-2.98-0.07c-0.94-3.03-0.4-6.26-0.51-9.38   C736.32,57.15,736.42,30.3,736.28,3.46z"/>
	<path fill="#000005" stroke="#000005" stroke-width="0.0938" d="M751.38,3.28c1.18,0.12,2.35,0.24,3.56,0.36   c-0.32,19.93-0.02,39.87-0.16,59.8c-0.71-0.05-2.14-0.15-2.85-0.2c-0.9-1.55-0.5-3.47-0.62-5.18c0.11-18.16-0.02-36.32,0.06-54.48   L751.38,3.28z"/>
	<path fill="#000005" stroke="#000005" stroke-width="0.0938" d="M781.46,3.15c1.14,0.16,2.3,0.33,3.46,0.49   c-0.19,19.45,0.08,38.92-0.13,58.37c0.47,2.15-3.56,2.01-3.29-0.05c-0.16-19.46-0.03-38.93-0.05-58.4L781.46,3.15z"/>
	<path fill="#000005" stroke="#000005" stroke-width="0.0938" d="M811.33,3.34c1.16,0,2.3,0.02,3.48,0.04   c0.02,40.06,0.01,80.11,0,120.16c-0.75-0.03-2.25-0.09-3-0.12c-0.81-3.4-0.35-6.92-0.43-10.37   C811.36,76.48,811.46,39.91,811.33,3.34z"/>
	<path fill="#000005" stroke="#000005" stroke-width="0.0938" d="M826.33,3.35c1.17-0.01,2.33,0.01,3.52,0.02   c-0.05,19.55,0.13,39.1-0.0699,58.64c0.49,2.15-3.64,2.01-3.3101-0.04C826.23,42.43,826.53,22.89,826.33,3.35z"/>
	<path fill="#000005" stroke="#000005" stroke-width="0.0938" d="M1863.02,3.14c1.16,0.22,2.34,0.43,3.5499,0.64   c-0.0499,3.58-0.0299,7.15,0,10.73c-0.0199,1.68-0.0199,3.37,0.01,5.06c-0.01,12.61-0.12,25.23,0.04,37.85l0.03,0.47   c-1.22,1.14-2.4301,2.29-3.62,3.43c0.08-12.51,0.02-25.03,0.03-37.54c-0.02-1.72-0.03-3.44,0-5.16   c0.0399-5.01-0.02-10.01-0.0701-15.02L1863.02,3.14z"/>
	<path fill="#000005" stroke="#000005" stroke-width="0.0938" d="M165.46,3.4c1.15-0.01,2.31-0.01,3.46,0   c-0.05,19.54,0.14,39.09-0.08,58.62c0.45,2.17-3.56,2.03-3.31-0.07C165.33,42.44,165.49,22.92,165.46,3.4z"/>
	<path fill="#000005" stroke="#000005" stroke-width="0.0938" d="M180.49,3.42c1.11-0.01,2.23-0.02,3.36-0.01   c0.56,7.19-0.13,14.39,0.03,21.59c0.45,11.34-0.22,22.69,0.23,34.03c-0.2,1.57,0.47,5.14-2.23,4.42c-1.85,0.27-1.13-2.35-1.42-3.41   C180.5,41.16,180.46,22.29,180.49,3.42z"/>
	<path fill="#000004" stroke="#000004" stroke-width="0.0938" d="M210.62,3.49c0.89,0.01,2.67,0.03,3.57,0.05   c-0.05,38.13-0.02,76.26-0.02,114.4c-0.05,1.94-0.23,3.88-0.41,5.82c-1.06-0.16-2.12-0.33-3.17-0.5   C210.57,83.34,210.51,43.41,210.62,3.49z"/>
	<path fill="#000004" stroke="#000004" stroke-width="0.0938" d="M225.6,3.56c0.87-0.03,2.61-0.07,3.48-0.09   c0.1,19.94,0.05,39.88,0.02,59.82c-0.86,0.01-2.58,0.02-3.44,0.03C225.49,43.4,225.62,23.48,225.6,3.56z"/>
	<path fill="#000005" stroke="#000005" stroke-width="0.0938" d="M240.51,3.49c1.14,0.02,2.28,0.05,3.42,0.09   c-0.12,19.48,0.25,38.96-0.1,58.43c0.53,2.18-3.52,2.04-3.26-0.05C240.39,42.48,240.54,22.98,240.51,3.49z"/>
	<path fill="#000005" stroke="#000005" stroke-width="0.0938" d="M255.44,3.54h0.32c0.83-0.02,2.49-0.05,3.31-0.07   c0.11,18.85,0.04,37.71,0.05,56.56c0.25,2.08-0.76,4.59-3.25,3.28c-0.73-3.75-0.29-7.59-0.37-11.37   C255.47,35.81,255.58,19.67,255.44,3.54z"/>
	<path fill="#000005" stroke="#000005" stroke-width="0.0938" d="M270.15,3.84c0.99-0.09,2.96-0.26,3.94-0.35   c0.11,16.84-0.01,33.68,0.07,50.51c0,3,0.15,6.03-0.34,9c-0.78,0.17-2.34,0.5-3.12,0.67c-0.3-18.55-0.06-37.11-0.12-55.67   C270.54,6.6,270.39,5.22,270.15,3.84z"/>
	<path fill="#000005" stroke="#000005" stroke-width="0.0938" d="M285.58,3.54c0.92,0.01,2.76,0.03,3.68,0.04   c-0.19,28.13-0.03,56.26-0.07,84.39c-0.05,1.9-0.22,3.8-0.4,5.69c-1.05-0.13-2.1-0.27-3.14-0.41   C285.49,63.35,285.62,33.45,285.58,3.54z"/>
	<path fill="#000004" stroke="#000004" stroke-width="0.0938" d="M300.65,3.56c0.87-0.03,2.62-0.07,3.49-0.09   c0.1,19.93,0.09,39.87,0,59.81c-0.85,0.01-2.56,0.05-3.42,0.07C300.55,43.42,300.68,23.49,300.65,3.56z"/>
	<path fill="#000004" stroke="#000004" stroke-width="0.0938" d="M315.65,3.54c0.92,0.01,2.77,0.02,3.69,0.03   c-0.22,14.47-0.03,28.95-0.1,43.42c-0.07,5.55,0.33,11.12-0.44,16.64c-1.03-0.14-2.05-0.29-3.07-0.44   C315.55,43.31,315.7,23.42,315.65,3.54z"/>
	<path fill="#000004" stroke="#000004" stroke-width="0.0938" d="M330.72,3.59c0.91,0,2.72-0.02,3.63-0.02   c-0.26,19.91,0.07,39.83-0.17,59.75c-0.85,0-2.55,0-3.4,0C330.62,43.41,330.75,23.5,330.72,3.59z"/>
	<path fill="#000004" stroke="#000004" stroke-width="0.0938" d="M345.73,3.59c0.92,0,2.76-0.01,3.68-0.02   c-0.26,19.17,0.04,38.34-0.14,57.5c0.45,2.46-1.8,2.52-3.5,2.34C345.66,43.47,345.74,23.53,345.73,3.59z"/>
	<path fill="#000004" stroke="#000004" stroke-width="0.0938" d="M360.78,3.6c0.89-0.01,2.67-0.01,3.55-0.02   c-0.02,36.12,0,72.24,0,108.35c-0.05,3.68,0.23,7.37-0.2,11.04c-0.69,1.09-2.3,0.76-3.18,0.12c-0.36-3.38-0.17-6.78-0.18-10.16   C360.79,76.48,360.76,40.04,360.78,3.6z"/>
	<path fill="#000004" stroke="#000004" stroke-width="0.0938" d="M375.7,3.59c0.91-0.01,2.74-0.03,3.65-0.03   c-0.22,18.81-0.04,37.63-0.08,56.44c-0.09,1.36-0.02,4.31-2.15,3.49c-1.84,0.03-1.22-2.35-1.45-3.5   C375.7,41.19,375.67,22.39,375.7,3.59z"/>
	<path fill="#000004" stroke="#000004" stroke-width="0.0938" d="M390.69,3.59c0.91,0,2.73-0.02,3.64-0.02   c-0.21,18.14-0.04,36.29-0.08,54.44c-0.04,1.97-0.22,3.93-0.43,5.89c-1.45-0.49-3.58-0.64-3.09-2.78   C390.6,41.95,390.72,22.77,390.69,3.59z"/>
	<path fill="#000004" stroke="#000004" stroke-width="0.0938" d="M405.77,3.58c0.89,0,2.67,0,3.56,0   c-0.13,19.53,0.19,39.06-0.15,58.58c0.22,1.78-2.32,0.91-3.36,1.38C405.69,43.55,405.79,23.56,405.77,3.58z"/>
	<path fill="#000004" stroke="#000004" stroke-width="0.0938" d="M420.75,3.59c0.89-0.01,2.68-0.04,3.58-0.05   c-0.12,19.55,0.16,39.1-0.13,58.64c0.42,1.74-1.87,1.05-2.8,1.37c-0.64-1.44-0.67-3.03-0.69-4.57   C420.79,40.52,420.72,22.06,420.75,3.59z"/>
	<path fill="#000004" stroke="#000004" stroke-width="0.0938" d="M435.89,3.47c0.88,0.02,2.63,0.06,3.51,0.09   c-0.06,29.17,0.04,58.34-0.05,87.52c1.02,3.23-4.49,3.43-3.47,0.03C435.81,61.9,435.8,32.68,435.89,3.47z"/>
	<path fill="#000004" stroke="#000004" stroke-width="0.0938" d="M450.81,3.59c0.9-0.01,2.7-0.01,3.6-0.02   c-0.09,19.89,0.09,39.77-0.09,59.66c-1.04,0.12-2.07,0.24-3.1,0.36c-0.53-4.17-0.47-8.38-0.42-12.57   C450.81,35.21,450.8,19.4,450.81,3.59z"/>
	<path fill="#000005" stroke="#000005" stroke-width="0.0938" d="M480.93,3.42c0.87,0,2.62,0,3.5,0   c-0.04,19.92,0.33,39.88-0.18,59.79c-2.48,1.51-3.64-1-3.39-3.15C480.89,41.18,480.78,22.3,480.93,3.42z"/>
	<path fill="#000005" stroke="#000005" stroke-width="0.0938" d="M496.03,3.44c1.15,0,2.31-0.01,3.47,0   c-0.06,19.51,0.18,39.04-0.1,58.54c0.15,1.93-2.12,1.18-3.3,1.52C495.88,43.49,496.03,23.46,496.03,3.44z"/>
	<path fill="#000005" stroke="#000005" stroke-width="0.0938" d="M525.91,3.48c0.88,0.01,2.65,0.02,3.54,0.03   c-0.12,20.04,0.15,40.09-0.14,60.13c-0.78-0.15-2.35-0.46-3.13-0.62c-0.53-3.3-0.32-6.65-0.33-9.98   C525.91,36.52,525.8,20,525.91,3.48z"/>
	<path fill="#000005" stroke="#000005" stroke-width="0.0938" d="M540.84,3.8c0.9-0.07,2.71-0.22,3.61-0.3   c0.03,19.51,0.17,39.02-0.06,58.51c0.18,2.77-4.3,1.63-3.45-0.98C540.76,41.96,540.97,22.88,540.84,3.8z"/>
	<path fill="#000005" stroke="#000005" stroke-width="0.0938" d="M556.14,3.45c0.83-0.01,2.48-0.01,3.3-0.01   c0.04,20.09,0.23,40.2-0.09,60.29c-1.63-0.4-3.92-0.39-3.36-2.71C556.37,41.84,555.7,22.63,556.14,3.45z"/>
	<path fill="#000005" stroke="#000005" stroke-width="0.0938" d="M571.12,3.41c1.14,0,2.28,0,3.43,0.01   c0.06,18.54-0.04,37.08,0.06,55.62c-0.04,1.4-0.07,2.82-0.45,4.17c-0.75,0.06-2.2599,0.17-3.0099,0.23   C571.08,43.43,571.13,23.42,571.12,3.41z"/>
	<path fill="#000005" stroke="#000005" stroke-width="0.0938" d="M796.42,3.52l0.27-0.01c0.82-0.01,2.44-0.03,3.25-0.04   c0.1,19.51,0.15,39.04-0.04,58.54c0.36,2.18-3.62,2.05-3.34-0.1C796.33,42.45,796.63,22.98,796.42,3.52z"/>
	<path fill="#000005" stroke="#000005" stroke-width="0.0938" d="M841.47,3.47c1.14,0.02,2.28,0.05,3.4301,0.09   c-0.1,19.98,0.05,39.95-0.07,59.93c-0.74-0.07-2.21-0.2-2.94-0.27c-0.75-2.68-0.41-5.49-0.45-8.23   C841.5,37.82,841.42,20.64,841.47,3.47z"/>
	<path fill="#000005" stroke="#000005" stroke-width="0.0938" d="M856.4,3.53h0.3c0.84-0.01,2.5-0.03,3.34-0.04   c-0.15,19.51,0.23,39.04-0.12,58.54c0.34,2.09-3.86,2.07-3.35-0.11C856.28,42.46,856.63,22.99,856.4,3.53z"/>
	<path fill="#000005" stroke="#000005" stroke-width="0.0938" d="M871.7,3.41c0.84,0,2.52,0.02,3.36,0.02   c0.02,19.96,0.23,39.93-0.11,59.89c-0.84,0-2.5,0.01-3.34,0.01C871.53,43.36,871.36,23.38,871.7,3.41z"/>
	<path fill="#000005" stroke="#000005" stroke-width="0.0938" d="M886.6,3.48c0.89,0.02,2.69,0.05,3.58,0.07   c-0.07,24.48,0,48.96-0.03,73.45c-0.06,5.57,0.29,11.16-0.42,16.7c-1.06-0.17-2.11-0.35-3.15-0.52   C886.53,63.28,886.49,33.38,886.6,3.48z"/>
	<path fill="#000004" stroke="#000004" stroke-width="0.0938" d="M901.6,3.56c0.89,0.06,2.67,0.18,3.56,0.24   c-0.04,19.83,0.11,39.67-0.08,59.5c-0.84,0.01-2.54,0.03-3.39,0.04C901.5,43.41,901.66,23.49,901.6,3.56z"/>
	<path fill="#000004" stroke="#000004" stroke-width="0.0938" d="M916.53,3.56c0.9399,0,2.83,0,3.78,0   c-0.24,19.88,0.02,39.77-0.13,59.65c-0.87,0.05-2.59,0.16-3.45,0.21C916.41,43.47,916.8,23.51,916.53,3.56z"/>
	<path fill="#000004" stroke="#000004" stroke-width="0.0938" d="M931.68,3.59c0.91-0.01,2.73-0.02,3.64-0.02   c-0.26,19.91,0.04,39.83-0.15,59.74c-0.86,0-2.57,0-3.43,0C931.59,43.41,931.71,23.5,931.68,3.59z"/>
	<path fill="#000004" stroke="#000004" stroke-width="0.0938" d="M946.69,3.58c0.9,0,2.7,0,3.6,0c-0.06,19.95,0.06,39.9-0.06,59.84   c-0.96,0-1.89-0.03-2.82-0.1c-0.97-1.24-0.67-2.89-0.77-4.34C946.74,40.51,946.65,22.05,946.69,3.58z"/>
	<path fill="#000004" stroke="#000004" stroke-width="0.0938" d="M961.59,3.55c0.87-0.02,2.62-0.06,3.49-0.08   c0.12,39.98,0.01,79.95,0.05,119.92c-1.19,0.01-2.37,0.01-3.53,0.01C961.57,83.45,961.58,43.5,961.59,3.55z"/>
	<path fill="#000004" stroke="#000004" stroke-width="0.0938" d="M976.65,3.54c0.92,0.01,2.75,0.02,3.66,0.03   c-0.21,14.49-0.03,28.98-0.09,43.47c-0.1,5.64,0.39,11.31-0.54,16.9c-1.41-0.54-3.52-0.68-2.98-2.78   C976.55,41.96,976.69,22.75,976.65,3.54z"/>
	<path fill="#000005" stroke="#000005" stroke-width="0.0938" d="M207.54,158.61c3.02-2.32,5.74-5.83,10-5.29   c0.96,3.51-0.04,7.12,0.21,10.68c0.67,11.43-2.79,22.79-0.8,34.2c1.62,0.48,3.35,0.37,5.01,0.68c2.51,1.1,2.02,5.87-0.96,5.85   c-5.35,0.15-10.72,0.13-16.07,0.01c-2.61,0.19-3.73-3.99-1.45-5.19c2.18-1.02,4.69-0.73,7.03-0.96c-1.44-11.55,0.7-23.07,0.9-34.62   c-1.76,1.18-3.43,2.51-5.35,3.42c-2.2,0.55-4.42-2.25-3.48-4.27C203.92,161.31,205.81,160.02,207.54,158.61z"/>
	<path fill="#000005" stroke="#000005" stroke-width="0.0938" d="M355.99,155.97c7.06-3.76,17.74-1.84,21.19,5.96   c1.5,5.07,0.04,10.86-3.28,14.93c-4.79,5.32-11.83,7.85-16.84,12.91c-2.33,2.34-3.1,5.67-3.51,8.85c6.81-0.5,13.67-1.67,20.5-0.74   c1.39,0.43,2.83,1.08,3.78,2.24c1.45,1.81-0.5,5.24-2.83,4.55c-7.26-1.42-14.66-0.23-21.95,0.21c-2.02-0.01-4.73,0.02-5.36-2.39   c-0.96-5.72-0.15-12.37,4.16-16.63c4.96-4.82,11.48-7.7,16.28-12.71c2.03-2.12,3.24-5.19,2.89-8.12c-1.26-3.51-5.56-4.86-8.99-4.39   c-4.97,0.19-7.33,6.01-12.14,6.52c-2.48-0.06-3.34-3.24-1.8-4.89C350.34,159.75,353.07,157.67,355.99,155.97z"/>
	<path fill="#000005" stroke="#000005" stroke-width="0.0938" d="M664.93,156c1.88-3.33,9.67-4.16,9.21,1   c0.05,9-0.1,18.01,0.06,27.01c2.63,0.13,5.39,0.21,7.62,1.84c-0.5,1.43-0.36,3.35-1.85,4.2c-1.89,0.57-3.89,0.31-5.81,0.38   c-0.1299,4.24,0.17,8.49-0.1299,12.72c-0.08,3.59-6,3.22-6.33-0.1c-0.32-4.26,0.08-8.53-0.04-12.8c-6.94-0.05-13.89-0.07-20.8-0.62   c-1.69,0.11-2.62-1.36-3.51-2.51C650.72,176.88,657.81,166.43,664.93,156 M653.9,183.67c4.58,0.02,9.17,0.12,13.7599,0.13   c-0.04-7,0.03-14.01-0.03-21.01C662.95,169.68,658.67,176.84,653.9,183.67z"/>
	<path fill="#000005" stroke="#000005" stroke-width="0.0938" d="M797.23,155.66c2.16-1.9,5.15-1.16,7.77-1.29   c7.03-0.05,14.1,0.25,21.11-0.45c2.38,0.08,3.68,3.45,1.93,5.09c-1.94,1.73-4.68,1.66-7.1,1.66c-5.11-0.07-10.22,0.06-15.33,0.07   c-0.53,3.5-0.99,7.02-1.36,10.56c5.05-2.8,11.12-3.96,16.74-2.39c4.93,1.46,7.83,6.3,8.92,11.06c1.78,7.66,0.31,16.69-5.83,22.08   c-7.22,7-21.57,6.99-26.95-2.28c-1.27-1.55-0.15-4.51,1.88-4.63c3.45-0.82,4.47,3.51,7.25,4.55c4.32,1.67,9.72,1.02,13.11-2.32   c5.6-4.94,6.3-13.95,2.53-20.16c-2.26-3.15-6.58-2.72-9.94-2.27c-4.48,1.07-6.55,5.65-10.06,8.16c-1.55,1.19-3.72,0.24-4.48-1.38   C796.27,173.09,800.92,163.98,797.23,155.66z"/>
	<path fill="#000005" stroke="#000005" stroke-width="0.0938" d="M947.25,178.93c2.17-10.5,9.92-18.51,17.82-25.18   c2.22-0.98,4.71,0.95,4.43,3.32c-4.44,6.62-12.49,10.64-14.69,18.77c6.1-3.01,14.06-3.73,19.61,0.81   c6.09,5.57,6.21,15.41,2.61,22.37c-4.59,8.84-18.11,11.34-25.27,4.32C945.67,196.92,945.67,187.1,947.25,178.93 M958.49,180.58   c-1.98,0.78-3.94,1.8-5.47,3.31c-0.71,5.31-0.06,11.38,3.75,15.46c2.56,2.7,6.88,2.62,10.15,1.4c5.69-2.73,7.18-10.34,5.23-15.86   C969.84,179.68,963.26,179.64,958.49,180.58z"/>
	<path fill="#000005" stroke="#000005" stroke-width="0.0938" d="M499.01,160.05c6.14-6.75,18.42-7.81,24.78-0.83   c4.9901,5.62,3.36,16.1-4.07,18.8c2.69,1.58,5.61,3.32,6.79,6.39c2.45,6.04,1.18,13.82-4.04,18.05c-7.23,6.57-21.03,4.66-25.29-4.4   c-1.88-2.78,1.98-6.07,4.59-4.25c1.84,2.12,3.14,5.17,6.21,5.71c4.44,1.58,9.95,0.07,12.33-4.14c2.16-4.19,0.12-9.59-3.73-12.04   c-3.11-2.32-7.22-1.94-10.67-3.36c-0.9-1.31-1.06-3.68,0.72-4.35c3.44-1.6,7.38-1.65,10.83-3.24c2.93-1.47,4.19-5.38,2.4-8.19   c-1.71-3.11-5.7-3.46-8.85-3.35c-3.54,0.05-5.96,3.01-9.15,4.05C499.62,165.17,497.43,161.91,499.01,160.05z"/>
	<path fill="#000005" stroke="#000005" stroke-width="0.0938" d="M56.39,158.41c6.5-1.95,14.3-0.93,19.2,4.08   c6.22,6.44,8.27,15.81,7.76,24.52c-0.43,8.94-1.37,18.8-7.52,25.84c-5.04,5.88-13.75,7.13-20.88,5.02   c-7.66-2.53-11.84-10.43-13.37-17.88c-1.73-9.21-2.24-19.14,1.49-27.95C45.5,166.01,49.97,160.37,56.39,158.41 M58.41,165.54   c-4.3,1.52-7.06,5.53-8.67,9.6c-2.66,6.31-2.39,13.35-1.51,20c0.57,4.54,1.91,9.16,4.9,12.72c4.24,5.09,13.21,4.74,17.14-0.56   c3.88-5.18,5.03-11.87,5.33-18.19c0.27-6.75,0.12-14.06-3.78-19.88C68.98,164.97,63.02,163.96,58.41,165.54z"/>
	<path opacity="0.73" fill="#000049" stroke="#000049" stroke-width="0.0938" enable-background="new    " d="M360.81,1034.9399   c0.86,0,2.58,0.01,3.45,0.01c-0.01,0.87-0.01,2.6001-0.02,3.4701c-1.17-0.04-2.34-0.0701-3.5-0.0801   C360.76,1037.49,360.79,1035.79,360.81,1034.9399z"/>
	<path opacity="0.73" fill="#00004A" stroke="#00004A" stroke-width="0.0938" enable-background="new    " d="M372.17,1042.4   c1.24-1.3101,2.5-2.59,3.77-3.85c0.9,0.7799,1.8,1.58,2.71,2.3899c-1.28,1.3101-2.58,2.6001-3.91,3.8601   C373.88,1043.98,373.03,1043.1801,372.17,1042.4z"/>
</g>
</svg>